<?xml version="1.0" encoding="UTF-8"?>
<svg xmlns="http://www.w3.org/2000/svg" xmlns:xlink="http://www.w3.org/1999/xlink" width="0" height="0">
  <symbol id="close-dark" width="24" height="24" fill="none">
    <path fill="#A3B2C7" fill-rule="evenodd"
      d="M6.42 4.83a1.125 1.125 0 0 0-1.59 1.59L10.41 12l-5.58 5.58a1.125 1.125 0 1 0 1.59 1.59L12 13.59l5.58 5.58a1.124 1.124 0 1 0 1.59-1.59L13.59 12l5.58-5.58a1.125 1.125 0 0 0-1.59-1.59L12 10.41z"
      clip-rule="evenodd" />
  </symbol>
  <symbol id="dashboard" width="26" height="26" fill="none">
    <path fill="currentColor"
      d="M10.517 2.166H3.746c-.871 0-1.58.709-1.58 1.58v4.062c0 .872.709 1.58 1.58 1.58h6.77c.872 0 1.58-.708 1.58-1.58V3.746c0-.871-.708-1.58-1.58-1.58m0 9.028H3.746c-.871 0-1.58.708-1.58 1.58v9.479c0 .871.709 1.58 1.58 1.58h6.77c.872 0 1.58-.709 1.58-1.58v-9.48c0-.87-.708-1.58-1.58-1.58m11.736 5.416h-6.771c-.871 0-1.58.71-1.58 1.58v4.063c0 .871.709 1.58 1.58 1.58h6.77c.872 0 1.58-.709 1.58-1.58V18.19c0-.87-.708-1.58-1.58-1.58m0-14.444h-6.771c-.871 0-1.58.709-1.58 1.58v9.479c0 .871.709 1.58 1.58 1.58h6.77c.872 0 1.58-.709 1.58-1.58v-9.48c0-.87-.708-1.579-1.58-1.579" />
  </symbol>
  <symbol id="delete" width="30" height="30" fill="none">
    <circle cx="15" cy="15" r="15" fill="#FF7474" opacity=".1" />
    <path stroke="#FF7474" stroke-linecap="round" stroke-linejoin="round"
      d="M21 10.988a68 68 0 0 0-6.68-.334q-1.98 0-3.96.2L9 10.988M12.666 10.314l.147-.873c.106-.634.186-1.107 1.313-1.107h1.747c1.126 0 1.213.5 1.313 1.113l.147.867M19.567 13.094l-.433 6.713c-.074 1.047-.134 1.86-1.994 1.86h-4.28c-1.86 0-1.92-.813-1.993-1.86l-.433-6.713M13.887 18h2.22M13.334 15.334h3.333" />
  </symbol>
  <symbol id="documents" width="26" height="26" fill="none">
    <path fill="currentColor"
      d="M21.053 4.37c.143.225-.102.488-.363.429a5.8 5.8 0 0 0-1.646-.228h-3.596a.5.5 0 0 1-.4-.2L13.79 2.697c-.153-.216-.009-.531.256-.531h2.983c1.69 0 3.18.878 4.024 2.204" />
    <path fill="currentColor"
      d="M21.818 7.084a4.5 4.5 0 0 0-1.571-.725 4.5 4.5 0 0 0-1.203-.163h-4.03c-.628 0-.671-.054-1.007-.498L12.49 3.683c-.704-.943-1.257-1.517-3.022-1.517H6.954a4.79 4.79 0 0 0-4.788 4.788v12.09a4.79 4.79 0 0 0 4.788 4.789h12.09a4.79 4.79 0 0 0 4.789-4.789v-8.06c0-1.614-.791-3.033-2.015-3.9m-6.23 10.617H10.4a.745.745 0 0 1-.747-.758c0-.412.325-.759.747-.759h5.19a.76.76 0 0 1 .758.759.754.754 0 0 1-.759.758" />
  </symbol>
  <symbol id="dots" width="34" height="34" fill="none">
    <path stroke="#A3B2C7" stroke-width="1.507"
      d="M14.166 26.917a2.84 2.84 0 0 0 2.833 2.833 2.84 2.84 0 0 0 2.834-2.833 2.84 2.84 0 0 0-2.834-2.834 2.84 2.84 0 0 0-2.833 2.834ZM14.166 7.083a2.84 2.84 0 0 0 2.833 2.833 2.84 2.84 0 0 0 2.834-2.833 2.84 2.84 0 0 0-2.834-2.834 2.84 2.84 0 0 0-2.833 2.834ZM14.166 17a2.84 2.84 0 0 0 2.833 2.834 2.84 2.84 0 0 0 2.834-2.833 2.84 2.84 0 0 0-2.834-2.834 2.84 2.84 0 0 0-2.833 2.834Z" />
  </symbol>
  <symbol id="download" width="30" height="30" fill="none">
    <circle cx="15" cy="15" r="15" fill="#56B8FF" opacity=".1" />
    <path stroke="#56B8FF" stroke-linecap="round" stroke-linejoin="round" d="M15 8.334v4.667l1.333-1.334" />
    <path stroke="#56B8FF" stroke-linecap="round" stroke-linejoin="round" stroke-width="1.5"
      d="m15 13.001-1.334-1.333" />
    <path stroke="#56B8FF" stroke-linecap="round" stroke-linejoin="round"
      d="M8.32 15.668h2.94c.254 0 .48.14.594.367l.78 1.56c.226.453.686.74 1.193.74h2.353c.507 0 .967-.287 1.194-.74l.78-1.56a.67.67 0 0 1 .593-.367h2.907" />
    <path stroke="#56B8FF" stroke-linecap="round" stroke-linejoin="round"
      d="M11.667 9.754c-2.36.347-3.333 1.733-3.333 4.58V17c0 3.333 1.333 4.666 4.667 4.666h4c3.333 0 4.666-1.333 4.666-4.666v-2.667c0-2.847-.973-4.233-3.333-4.58" />
  </symbol>
  <symbol id="edit" width="30" height="30" fill="none">
    <circle cx="15" cy="15" r="15" fill="#3DD9B3" opacity=".1" />
    <path fill="#3DD9B3" fill-rule="evenodd"
      d="M15.889 9.445A5.556 5.556 0 0 0 10.333 15 .667.667 0 1 1 9 15a6.889 6.889 0 1 1 13.115 2.953.666.666 0 1 1-1.205-.572 5.556 5.556 0 0 0-5.021-7.936m-5.677 8.191a.667.667 0 0 1 .915.227 5.55 5.55 0 0 0 4.762 2.693 5.53 5.53 0 0 0 2.863-.794.667.667 0 0 1 .688 1.143 6.85 6.85 0 0 1-3.551.984c-2.507 0-4.7-1.34-5.904-3.338a.667.667 0 0 1 .226-.915"
      clip-rule="evenodd" />
    <path fill="#3DD9B3" fill-rule="evenodd"
      d="M15.446 11.668c.368 0 .667.298.667.667v2.888h2.889a.667.667 0 0 1 0 1.334h-3.556a.667.667 0 0 1-.667-.667v-3.555c0-.369.299-.667.667-.667M7.52 11.78a.667.667 0 0 1 .924.185l1.408 2.112 2.112-1.408a.667.667 0 1 1 .74 1.11l-2.667 1.777a.667.667 0 0 1-.925-.185l-1.777-2.667a.667.667 0 0 1 .185-.924"
      clip-rule="evenodd" />
  </symbol>
  <symbol id="file-audio" width="45" height="45" fill="none">
    <path fill="#3DD9B3"
      d="M39 10.137v20.789a6.61 6.61 0 0 1-6.605 6.605c-3.624 0-6.605-2.962-6.605-6.605 0-3.624 2.98-6.586 6.605-6.586 1.545 0 2.925.533 4.047 1.416V14.81l-16.944 4.82v14.847c0 3.642-2.98 6.604-6.604 6.604a6.61 6.61 0 0 1-6.605-6.604c0-3.625 2.962-6.587 6.605-6.587 1.527 0 2.906.534 4.029 1.399V13.025c0-2.704 1.637-4.801 4.231-5.5l10.634-2.907c2.152-.59 3.974-.387 5.262.607C38.356 6.2 39 7.855 39 10.137" />
  </symbol>
  <symbol id="file-csv" width="40" height="40" fill="none">
    <path fill="#00733B"
      d="M13.173 0h13.545l11.958 11.959v22.968A5.086 5.086 0 0 1 33.603 40h-20.43A5.086 5.086 0 0 1 8.1 34.927V5.073A5.086 5.086 0 0 1 13.173 0" />
    <path fill="#005C2F"
      d="m26.719 0 11.958 11.959H28.008a1.29 1.29 0 0 1-1.29-1.29zM2.438 17.032h27.55c.612 0 1.113.5 1.113 1.113v10.107c0 .612-.5 1.115-1.114 1.115H2.437a1.12 1.12 0 0 1-1.113-1.115V18.145c0-.613.5-1.113 1.114-1.113" />
    <path fill="#fff"
      d="M8.073 21.819v2.761c0 .79.642 1.432 1.432 1.432s1.432-.642 1.432-1.432a.646.646 0 1 1 1.292 0 2.727 2.727 0 0 1-2.724 2.724 2.727 2.727 0 0 1-2.724-2.724V21.82a2.727 2.727 0 0 1 2.724-2.724 2.727 2.727 0 0 1 2.724 2.724.646.646 0 0 1-1.292 0c0-.79-.642-1.433-1.432-1.433s-1.432.643-1.432 1.433m7.646-1.433h1.029c.415 0 .753.338.753.754a.646.646 0 0 0 1.291 0 2.047 2.047 0 0 0-2.044-2.045h-1.03a2.38 2.38 0 0 0-2.376 2.374c0 1.159.596 1.724 1.095 1.994.634.342 1.433.382 1.979.382.598 0 1.085.486 1.085 1.083 0 .598-.487 1.084-1.085 1.084h-1.029a.754.754 0 0 1-.753-.753.646.646 0 1 0-1.292 0c0 1.128.918 2.045 2.045 2.045h1.03a2.38 2.38 0 0 0 2.375-2.376 2.38 2.38 0 0 0-2.376-2.375c-1.648 0-1.782-.49-1.782-1.084 0-.597.487-1.083 1.085-1.083m9.48-1.258a.646.646 0 0 0-.816.409l-1.685 5.072-1.684-5.072a.646.646 0 0 0-1.226.407l2.297 6.918a.646.646 0 0 0 1.226 0l2.298-6.918a.646.646 0 0 0-.41-.816" />
  </symbol>
  <symbol id="file-doc" width="40" height="40" fill="none">
    <path fill="#3B48A3"
      d="M13.17 0h13.546l11.96 11.959v22.968c0 2.791-2.283 5.073-5.072 5.073H13.17c-2.79 0-5.073-2.282-5.073-5.073V5.073C8.098 2.28 10.382 0 13.17 0" />
    <path fill="#2F3982"
      d="m26.717 0 11.96 11.959H28.009c-.71 0-1.291-.579-1.291-1.29zM2.438 17.032h27.547c.613 0 1.116.5 1.116 1.113v10.107a1.12 1.12 0 0 1-1.116 1.115H2.438a1.12 1.12 0 0 1-1.114-1.115V18.145c0-.613.5-1.113 1.114-1.113" />
    <path fill="#fff"
      d="M16.212 19.095a2.727 2.727 0 0 0-2.724 2.724v2.761a2.727 2.727 0 0 0 2.724 2.724 2.727 2.727 0 0 0 2.724-2.724V21.82a2.727 2.727 0 0 0-2.724-2.724m1.432 5.485c0 .79-.642 1.432-1.432 1.432s-1.432-.642-1.432-1.432V21.82c0-.79.642-1.433 1.432-1.433s1.432.643 1.432 1.433zm8.143 0a2.727 2.727 0 0 1-2.723 2.724 2.727 2.727 0 0 1-2.724-2.724V21.82a2.727 2.727 0 0 1 2.724-2.724 2.727 2.727 0 0 1 2.723 2.724.646.646 0 1 1-1.291 0c0-.79-.643-1.433-1.432-1.433-.79 0-1.433.643-1.433 1.433v2.761a1.434 1.434 0 0 0 2.864 0 .646.646 0 1 1 1.292 0M9.361 19.095H7.282a.646.646 0 0 0-.645.646v6.917c0 .357.289.646.646.646H9.36a2.727 2.727 0 0 0 2.723-2.724V21.82a2.727 2.727 0 0 0-2.723-2.724m1.432 5.485c0 .79-.643 1.432-1.432 1.432H7.928v-5.626h1.433c.79 0 1.432.643 1.432 1.433z" />
  </symbol>
  <symbol id="file-document-light" width="241" height="118" fill="none">
    <path fill="#F2F4F8" d="M15 60c0-27.614 22.386-50 50-50h176v108H15z" />
    <g filter="url(#a)" opacity=".4">
      <circle cx="48" cy="48" r="33" fill="currentColor" />
    </g>
    <circle cx="48" cy="43" r="33" fill="currentColor" />
    <path fill="#fff"
      d="M57.915 32.38c.176.278-.126.6-.447.528a7.2 7.2 0 0 0-2.026-.28H51.1a.79.79 0 0 1-.627-.313l-1.498-1.994c-.188-.266-.01-.653.316-.653h3.67a5.86 5.86 0 0 1 4.954 2.713" />
    <path fill="#fff"
      d="M58.855 35.721a5.6 5.6 0 0 0-1.934-.893q-.72-.2-1.48-.2h-4.96c-.773 0-.826-.067-1.24-.613l-1.866-2.48c-.867-1.16-1.547-1.867-3.72-1.867H40.56a5.895 5.895 0 0 0-5.893 5.893v14.88a5.895 5.895 0 0 0 5.893 5.894h14.88a5.895 5.895 0 0 0 5.894-5.894v-9.92a5.85 5.85 0 0 0-2.48-4.8m-7.667 13.067h-6.387a.916.916 0 0 1-.92-.933c0-.507.4-.934.92-.934h6.387c.52 0 .933.427.933.934 0 .52-.413.933-.933.933" />
    <mask id="b" width="226" height="86" x="15" y="32" maskUnits="userSpaceOnUse" style="mask-type:alpha">
      <path fill="#D9D9D9" d="M15 32h226v86H15z" />
    </mask>
    <g mask="url(#b)">
      <path fill="#fff"
        d="M15.133 132.681v-18.576c-.806-8.634 1.165-25.76 31.703-27.892 28.048-1.958 34.017-5.912 48.717-31.682 12.1-21.214 30.573-21.615 47.49-21.983 2.216-.049 4.406-.096 6.551-.19 11.369-.497 48.487-.556 73.906-.357C252 32 241 29.71 241 40.5v183.786c0 10.888-8.854 19.714-19.775 19.714H34.775c-10.921 0-19.775-8.826-19.775-19.714v-91.606z" />
    </g>
    <defs>
      <filter id="a" width="94.25" height="94.25" x=".875" y=".875" color-interpolation-filters="sRGB"
        filterUnits="userSpaceOnUse">
        <feFlood flood-opacity="0" result="BackgroundImageFix" />
        <feBlend in="SourceGraphic" in2="BackgroundImageFix" result="shape" />
        <feGaussianBlur result="effect1_foregroundBlur_228_4096" stdDeviation="7.063" />
      </filter>
    </defs>
  </symbol>
  <symbol id="file-document" width="44" height="44" fill="none">
    <path fill="#56B8FF"
      d="M33.462 9.72c.204.321-.145.694-.516.61a8.3 8.3 0 0 0-2.343-.323H25.38a.5.5 0 0 1-.4-.2l-1.854-2.468c-.217-.307-.012-.755.364-.755h4.245a6.78 6.78 0 0 1 5.727 3.136" />
    <path fill="#56B8FF"
      d="M34.55 13.583a6.4 6.4 0 0 0-2.236-1.033 6.4 6.4 0 0 0-1.71-.231h-5.736c-.894 0-.956-.077-1.434-.71l-2.158-2.867c-1.002-1.34-1.788-2.158-4.301-2.158h-3.577a6.816 6.816 0 0 0-6.814 6.814v17.205a6.816 6.816 0 0 0 6.814 6.814h17.205a6.816 6.816 0 0 0 6.814-6.814v-11.47a6.77 6.77 0 0 0-2.867-5.55m-8.865 15.109h-7.384a1.06 1.06 0 0 1-1.064-1.08c0-.585.462-1.079 1.064-1.079h7.384c.602 0 1.08.493 1.08 1.08 0 .6-.479 1.079-1.08 1.079" />
  </symbol>
  <symbol id="file-docx" width="40" height="40" fill="none">
    <path fill="#008BF5"
      d="M13.17 0h13.546l11.96 11.959v22.968c0 2.791-2.283 5.073-5.072 5.073H13.17c-2.79 0-5.073-2.282-5.073-5.073V5.073C8.098 2.28 10.382 0 13.17 0" />
    <path fill="#006FC4"
      d="m26.717 0 11.96 11.959H28.009c-.71 0-1.291-.579-1.291-1.29zM2.438 17.032h27.55c.61 0 1.113.5 1.113 1.113v10.107a1.12 1.12 0 0 1-1.114 1.115H2.437a1.12 1.12 0 0 1-1.113-1.115V18.145c0-.613.5-1.113 1.114-1.113" />
    <path fill="#fff"
      d="M13.264 19.095a2.727 2.727 0 0 0-2.724 2.724v2.761a2.727 2.727 0 0 0 2.724 2.724 2.727 2.727 0 0 0 2.724-2.724V21.82a2.727 2.727 0 0 0-2.724-2.724m1.432 5.485c0 .79-.643 1.432-1.432 1.432-.79 0-1.432-.642-1.432-1.432V21.82c0-.79.642-1.433 1.432-1.433s1.432.643 1.432 1.433zm3.454-2.761v2.761c0 .79.643 1.432 1.432 1.432.79 0 1.433-.642 1.433-1.432a.646.646 0 1 1 1.291 0 2.727 2.727 0 0 1-2.724 2.724 2.727 2.727 0 0 1-2.723-2.724V21.82a2.727 2.727 0 0 1 2.723-2.724 2.727 2.727 0 0 1 2.724 2.724.646.646 0 1 1-1.291 0 1.434 1.434 0 0 0-2.864 0M6.835 19.095H4.757a.646.646 0 0 0-.646.646v6.917c0 .357.29.646.646.646h2.078A2.727 2.727 0 0 0 9.56 24.58V21.82a2.727 2.727 0 0 0-2.724-2.724m1.432 5.485c0 .79-.642 1.432-1.432 1.432H5.403v-5.626h1.432c.79 0 1.432.643 1.432 1.433zm19.95 1.746a.646.646 0 1 1-1.107.665l-1.524-2.538-1.525 2.538a.646.646 0 1 1-1.107-.665l1.878-3.127-1.878-3.126a.646.646 0 1 1 1.107-.665l1.525 2.537 1.524-2.537a.646.646 0 0 1 1.108.665L26.339 23.2z" />
  </symbol>
  <symbol id="file-image-light" width="241" height="118" fill="none">
    <path fill="#F2F4F8" d="M15 60c0-27.614 22.386-50 50-50h176v108H15z" />
    <path fill="#fff"
      d="M60.2 35.227c-.546-.293-1.693-.6-3.253.494l-1.96 1.386c-.146-4.146-1.946-5.773-6.32-5.773h-8c-4.56 0-6.333 1.773-6.333 6.333v10.667c0 3.067 1.667 6.333 6.333 6.333h8c4.374 0 6.174-1.626 6.32-5.773l1.96 1.387c.827.586 1.547.773 2.12.773.494 0 .88-.147 1.134-.28.546-.28 1.466-1.04 1.466-2.947v-9.653c0-1.907-.92-2.667-1.466-2.947m-13.533 6.947a2.51 2.51 0 0 1-2.506-2.507 2.51 2.51 0 0 1 2.506-2.506 2.51 2.51 0 0 1 2.507 2.506 2.51 2.51 0 0 1-2.507 2.507" />
    <g filter="url(#a)" opacity=".4">
      <circle cx="48" cy="48" r="33" fill="currentColor" />
    </g>
    <circle cx="48" cy="43" r="33" fill="currentColor" />
    <path fill="#fff"
      d="M40.331 51.507a5.06 5.06 0 0 1-2.908-.924 4.9 4.9 0 0 1-1.815-2.415l-.047-.15a4.7 4.7 0 0 1-.23-1.42v-8.925l-3.235 10.6a2.93 2.93 0 0 0 .31 2.23 3.02 3.02 0 0 0 1.813 1.377l20.619 5.421q.386.098.768.097c1.328 0 2.541-.865 2.881-2.14l1.202-3.75zm3.667-13.745c1.47 0 2.667-1.175 2.667-2.618 0-1.444-1.196-2.619-2.667-2.619s-2.667 1.175-2.667 2.619 1.196 2.618 2.667 2.618" />
    <path fill="#fff"
      d="M60.665 28.6H40.664a3.37 3.37 0 0 0-2.356.96 3.25 3.25 0 0 0-.978 2.312v14.4c0 1.804 1.496 3.273 3.334 3.273h20.001c1.838 0 3.334-1.469 3.334-3.273v-14.4c0-1.804-1.496-3.272-3.334-3.272m-20.001 2.618h20.001c.177 0 .347.069.472.192.125.122.195.289.195.462v9.294L57.12 36.34a2.4 2.4 0 0 0-.806-.591 2.4 2.4 0 0 0-.983-.214c-.34.002-.676.077-.983.22-.308.142-.58.35-.798.606l-4.952 5.836-1.614-1.58a2.36 2.36 0 0 0-1.653-.672c-.62 0-1.215.242-1.654.672l-3.68 3.612V31.872c0-.173.07-.34.195-.462a.67.67 0 0 1 .472-.192" />
    <mask id="b" width="226" height="86" x="15" y="32" maskUnits="userSpaceOnUse" style="mask-type:alpha">
      <path fill="#D9D9D9" d="M15 32h226v86H15z" />
    </mask>
    <g mask="url(#b)">
      <path fill="#fff"
        d="M15.133 132.681v-18.576c-.806-8.634 1.165-25.76 31.703-27.892 28.048-1.958 34.017-5.912 48.717-31.682 12.1-21.214 30.573-21.615 47.49-21.983 2.216-.049 4.406-.096 6.551-.19 11.369-.497 48.487-.556 73.906-.357C252 32 241 29.71 241 40.5v183.786c0 10.888-8.854 19.714-19.775 19.714H34.775c-10.921 0-19.775-8.826-19.775-19.714v-91.606z" />
    </g>
    <defs>
      <filter id="a" width="94.25" height="94.25" x=".875" y=".875" color-interpolation-filters="sRGB"
        filterUnits="userSpaceOnUse">
        <feFlood flood-opacity="0" result="BackgroundImageFix" />
        <feBlend in="SourceGraphic" in2="BackgroundImageFix" result="shape" />
        <feGaussianBlur result="effect1_foregroundBlur_228_4006" stdDeviation="7.063" />
      </filter>
    </defs>
  </symbol>
  <symbol id="file-image" width="44" height="44" fill="none">
    <path fill="#F9AB72"
      d="M13.133 31.838A5.84 5.84 0 0 1 9.77 30.77a5.68 5.68 0 0 1-2.098-2.793l-.054-.174a5.4 5.4 0 0 1-.267-1.64v-10.32L3.611 28.1c-.23.872-.1 1.797.359 2.577a3.5 3.5 0 0 0 2.095 1.593l23.841 6.268q.448.112.888.112c1.536 0 2.939-1 3.332-2.475l1.39-4.337zm4.24-15.893c1.7 0 3.083-1.358 3.083-3.027S19.073 9.89 17.373 9.89s-3.084 1.357-3.084 3.027 1.383 3.027 3.084 3.027" />
    <path fill="#F9AB72"
      d="M36.645 5.35H13.518a3.9 3.9 0 0 0-2.724 1.11 3.75 3.75 0 0 0-1.13 2.674v16.65c0 2.085 1.73 3.784 3.855 3.784h23.126c2.125 0 3.855-1.699 3.855-3.784V9.134c0-2.086-1.73-3.784-3.855-3.784M13.518 8.377h23.127c.205 0 .401.08.545.222a.75.75 0 0 1 .226.535v10.745l-4.87-5.58a2.8 2.8 0 0 0-.932-.683 2.8 2.8 0 0 0-1.136-.247 2.7 2.7 0 0 0-1.137.253 2.7 2.7 0 0 0-.923.702l-5.726 6.748-1.865-1.827a2.73 2.73 0 0 0-1.912-.777c-.717 0-1.405.28-1.912.777l-4.255 4.176V9.134c0-.201.08-.394.225-.535a.78.78 0 0 1 .545-.222" />
  </symbol>
  <symbol id="file-other-light" width="241" height="118" fill="none">
    <path fill="#F2F4F8" d="M15 60c0-27.614 22.386-50 50-50h176v108H15z" />
    <g filter="url(#a)" opacity=".4">
      <circle cx="48" cy="48" r="33" fill="currentColor" />
    </g>
    <circle cx="48" cy="43" r="33" fill="currentColor" />
    <path fill="#fff"
      d="M62.175 35.591c-.938-3.182-3.593-5.837-6.776-6.776-2.42-.704-4.092-.645-5.25.22-1.394 1.041-1.555 2.919-1.555 4.254v3.652c0 3.608 1.642 5.441 4.87 5.441h4.209c1.32 0 3.212-.161 4.253-1.555.895-1.144.968-2.816.25-5.236" />
    <path fill="#fff"
      d="M58.13 44.993a2 2 0 0 0-1.51-.69h-5.251a4.68 4.68 0 0 1-4.68-4.678v-5.25c0-.573-.248-1.13-.688-1.511a1.99 1.99 0 0 0-1.57-.484c-3.447.44-6.615 2.332-8.683 5.177-2.082 2.86-2.845 6.35-2.185 9.841.953 5.046 4.987 9.08 10.047 10.033.806.161 1.613.234 2.42.234 2.655 0 5.221-.821 7.407-2.42 2.845-2.068 4.737-5.236 5.177-8.682a1.97 1.97 0 0 0-.484-1.57" />
    <mask id="b" width="226" height="86" x="15" y="32" maskUnits="userSpaceOnUse" style="mask-type:alpha">
      <path fill="#D9D9D9" d="M15 32h226v86H15z" />
    </mask>
    <g mask="url(#b)">
      <path fill="#fff"
        d="M15.133 132.681v-18.576c-.806-8.634 1.165-25.76 31.703-27.892 28.048-1.958 34.017-5.912 48.717-31.682 12.1-21.214 30.573-21.615 47.49-21.983 2.216-.049 4.406-.096 6.551-.19 11.369-.497 48.487-.556 73.906-.357C252 32 241 29.71 241 40.5v183.786c0 10.888-8.854 19.714-19.775 19.714H34.775c-10.921 0-19.775-8.826-19.775-19.714v-91.606z" />
    </g>
    <defs>
      <filter id="a" width="94.25" height="94.25" x=".875" y=".875" color-interpolation-filters="sRGB"
        filterUnits="userSpaceOnUse">
        <feFlood flood-opacity="0" result="BackgroundImageFix" />
        <feBlend in="SourceGraphic" in2="BackgroundImageFix" result="shape" />
        <feGaussianBlur result="effect1_foregroundBlur_228_4060" stdDeviation="7.063" />
      </filter>
    </defs>
  </symbol>
  <symbol id="file-other" width="45" height="45" fill="none">
    <path fill="#6295F2"
      d="M38.138 10.271 30.196 3.13a1.43 1.43 0 0 0-.957-.371H11.783a4.47 4.47 0 0 0-4.6 4.285V38.47a4.47 4.47 0 0 0 4.6 4.285H34.01a4.47 4.47 0 0 0 4.6-4.285v-27.14a1.43 1.43 0 0 0-.472-1.058m-15.484 5.343h.485a5.47 5.47 0 0 1 3.871 9.342l-1.914 1.914a2.54 2.54 0 0 0-.771 1.842 1.428 1.428 0 1 1-2.857 0c0-1.45.575-2.843 1.6-3.87l1.914-1.915a2.54 2.54 0 0 0 .771-1.842 2.614 2.614 0 0 0-2.614-2.614h-.485a2.614 2.614 0 0 0-2.614 2.614 1.428 1.428 0 1 1-2.857 0 5.485 5.485 0 0 1 5.47-5.471m-1.186 17.14a2 2 0 0 1 0-.27.9.9 0 0 1 .086-.272q.046-.137.128-.257a2 2 0 0 1 .172-.214c.135-.13.296-.232.471-.3a1.43 1.43 0 0 1 1.557.3q.092.102.171.214.082.12.129.257a.9.9 0 0 1 .086.271q.039.135.057.272a1.5 1.5 0 0 1-.415 1.014l-.214.172q-.12.08-.257.128l-.257.114h-.286a1.4 1.4 0 0 1-.543-.114 1.4 1.4 0 0 1-.47-.3 1.5 1.5 0 0 1-.415-1.014" />
    <path fill="#98B8FE"
      d="M38.61 11.326v2.857h-8.57a4.286 4.286 0 0 1-4.285-4.285V2.756h3.485c.354 0 .695.133.957.371l7.942 7.142a1.43 1.43 0 0 1 .471 1.057" />
    <path fill="url(#a)"
      d="M38.438 32.468a.085.085 0 0 1 .085-.086.086.086 0 0 1 .086.086v6a4.47 4.47 0 0 1-4.6 4.285H11.784a4.47 4.47 0 0 1-4.6-4.286v-5.97a.086.086 0 0 1 .172 0 4.57 4.57 0 0 0 4.428 3.113H34.01a4.57 4.57 0 0 0 4.428-3.142" />
    <defs>
      <linearGradient id="a" x1="22.896" x2="22.896" y1="42.752" y2="32.41" gradientUnits="userSpaceOnUse">
        <stop offset=".14" stop-color="#3758C0" />
        <stop offset=".24" stop-color="#446BCF" />
        <stop offset=".4" stop-color="#5582E2" />
        <stop offset=".55" stop-color="#5F90EE" />
        <stop offset=".68" stop-color="#6295F2" />
      </linearGradient>
    </defs>
  </symbol>
  <symbol id="file-pdf" width="40" height="40" fill="none">
    <path fill="#E5252A"
      d="M13.17 0h13.547l11.958 11.96v22.967c0 2.79-2.282 5.073-5.073 5.073H13.17c-2.789 0-5.07-2.284-5.07-5.073V5.073C8.1 2.283 10.38 0 13.17 0" />
    <path fill="#B71D21"
      d="m26.717 0 11.958 11.96H28.006c-.71 0-1.29-.58-1.29-1.291zM2.438 17.033h27.548c.612 0 1.113.5 1.113 1.113v10.106c0 .613-.5 1.114-1.113 1.114H2.438c-.613 0-1.114-.501-1.114-1.114V18.146c0-.613.5-1.113 1.114-1.113" />
    <path fill="#fff"
      d="M9.2 19.094H7.122a.646.646 0 0 0-.645.645v6.918a.646.646 0 0 0 1.291 0V24.63H9.2a2.727 2.727 0 0 0 2.724-2.723v-.09A2.727 2.727 0 0 0 9.2 19.094m1.433 2.813c0 .79-.643 1.432-1.433 1.432H7.768v-2.954H9.2c.79 0 1.432.643 1.432 1.432zm5.517-2.813h-2.078a.646.646 0 0 0-.646.645v6.918c0 .356.29.646.646.646h2.078a2.727 2.727 0 0 0 2.723-2.724v-2.762a2.727 2.727 0 0 0-2.723-2.723m1.432 5.485c0 .79-.643 1.432-1.432 1.432h-1.432v-5.626h1.432c.79 0 1.432.643 1.432 1.432zm4.21-4.194v1.788h2.994a.646.646 0 0 1 0 1.292h-2.993v3.192a.646.646 0 0 1-1.292 0V19.74c0-.357.29-.646.646-.646h4.156a.646.646 0 0 1 0 1.291z" />
  </symbol>
  <symbol id="file-svg" width="44" height="44" fill="none">
    <path fill="#F9AB72"
      d="M33.463 9.72c.204.321-.145.694-.516.61a8.3 8.3 0 0 0-2.343-.323H25.38a.5.5 0 0 1-.4-.2l-1.854-2.468c-.217-.307-.012-.755.364-.755h4.245a6.78 6.78 0 0 1 5.727 3.136" />
    <path fill="#F9AB72"
      d="M34.55 13.583a6.4 6.4 0 0 0-2.236-1.033 6.4 6.4 0 0 0-1.71-.231h-5.736c-.894 0-.956-.077-1.434-.71l-2.158-2.867c-1.002-1.34-1.788-2.158-4.301-2.158h-3.577a6.816 6.816 0 0 0-6.814 6.814v17.205a6.816 6.816 0 0 0 6.814 6.814h17.205a6.816 6.816 0 0 0 6.814-6.814v-11.47a6.77 6.77 0 0 0-2.867-5.55m-8.865 15.109h-7.384a1.06 1.06 0 0 1-1.064-1.08c0-.585.462-1.079 1.064-1.079h7.384c.602 0 1.08.493 1.08 1.08 0 .6-.479 1.079-1.08 1.079" />
  </symbol>
  <symbol id="file-txt" width="40" height="40" fill="none">
    <path fill="#7B8E9D"
      d="M13.17 0h13.545l11.96 11.96v22.967c0 2.79-2.284 5.073-5.073 5.073H13.17c-2.789 0-5.072-2.284-5.072-5.073V5.073C8.098 2.283 10.38 0 13.17 0" />
    <path fill="#62727E"
      d="m26.715 0 11.96 11.96H28.006c-.71 0-1.291-.58-1.291-1.291zM2.438 17.033h27.548c.612 0 1.113.5 1.113 1.113v10.106c0 .613-.5 1.114-1.113 1.114H2.438c-.613 0-1.114-.501-1.114-1.114V18.146c0-.613.5-1.113 1.114-1.113" />
    <path fill="#fff"
      d="m17.845 20.062-1.884 3.136 1.884 3.136a.626.626 0 1 1-1.072.645l-1.542-2.566-1.541 2.566a.625.625 0 1 1-1.073-.645l1.884-3.136-1.884-3.136a.626.626 0 1 1 1.073-.645l1.541 2.566 1.542-2.566a.626.626 0 1 1 1.072.645m-7.325-.948H6.364a.626.626 0 1 0 0 1.251h1.452v6.292a.626.626 0 1 0 1.252 0v-6.292h1.452a.626.626 0 1 0 0-1.251m13.579 0h-4.156a.625.625 0 1 0 0 1.251h1.452v6.292a.626.626 0 1 0 1.251 0v-6.292H24.1a.626.626 0 1 0 0-1.251" />
  </symbol>
  <symbol id="file-video-light" width="241" height="118" fill="none">
    <path fill="#F2F4F8" d="M15 60c0-27.614 22.386-50 50-50h176v108H15z" />
    <g filter="url(#a)" opacity=".4">
      <circle cx="48" cy="48" r="33" fill="currentColor" />
    </g>
    <circle cx="48" cy="43" r="33" fill="currentColor" />
    <path fill="#fff"
      d="M60.2 35.227c-.546-.293-1.693-.6-3.253.494l-1.96 1.386c-.146-4.146-1.946-5.773-6.32-5.773h-8c-4.56 0-6.333 1.773-6.333 6.333v10.667c0 3.067 1.667 6.333 6.333 6.333h8c4.374 0 6.174-1.626 6.32-5.773l1.96 1.387c.827.586 1.547.773 2.12.773.494 0 .88-.147 1.134-.28.546-.28 1.466-1.04 1.466-2.947v-9.653c0-1.907-.92-2.667-1.466-2.947m-13.533 6.947a2.51 2.51 0 0 1-2.506-2.507 2.51 2.51 0 0 1 2.506-2.506 2.51 2.51 0 0 1 2.507 2.506 2.51 2.51 0 0 1-2.507 2.507" />
    <mask id="b" width="226" height="86" x="15" y="32" maskUnits="userSpaceOnUse" style="mask-type:alpha">
      <path fill="#D9D9D9" d="M15 32h226v86H15z" />
    </mask>
    <g mask="url(#b)">
      <path fill="#fff"
        d="M15.133 132.681v-18.576c-.806-8.634 1.165-25.76 31.703-27.892 28.048-1.958 34.017-5.912 48.717-31.682 12.1-21.214 30.573-21.615 47.49-21.983 2.216-.049 4.406-.096 6.551-.19 11.369-.497 48.487-.556 73.906-.357C252 32 241 29.71 241 40.5v183.786c0 10.888-8.854 19.714-19.775 19.714H34.775c-10.921 0-19.775-8.826-19.775-19.714v-91.606z" />
    </g>
    <defs>
      <filter id="a" width="94.25" height="94.25" x=".875" y=".875" color-interpolation-filters="sRGB"
        filterUnits="userSpaceOnUse">
        <feFlood flood-opacity="0" result="BackgroundImageFix" />
        <feBlend in="SourceGraphic" in2="BackgroundImageFix" result="shape" />
        <feGaussianBlur result="effect1_foregroundBlur_228_4006" stdDeviation="7.063" />
      </filter>
    </defs>
  </symbol>
  <symbol id="file-video" width="45" height="45" fill="none">
    <path fill="currentColor"
      d="M22.603 4.281c-10.156 0-18.398 8.242-18.398 18.398s8.242 18.397 18.398 18.397S41 32.834 41 22.68C41 12.523 32.758 4.28 22.603 4.28m4.893 21.58-4.71 2.723c-3.035 1.748-5.519.313-5.519-3.183v-5.445c0-3.514 2.484-4.93 5.52-3.183l4.71 2.723c3.035 1.748 3.035 4.618 0 6.365" />
  </symbol>
  <symbol id="globe" fill="none" viewBox="0 0 16 16">
    <g clip-path="url(#a)">
      <path fill="#666" fill-rule="evenodd"
        d="M10.27 14.1a6.5 6.5 0 0 0 3.67-3.45q-1.24.21-2.7.34-.31 1.83-.97 3.1M8 16A8 8 0 1 0 8 0a8 8 0 0 0 0 16m.48-1.52a7 7 0 0 1-.96 0H7.5a4 4 0 0 1-.84-1.32q-.38-.89-.63-2.08a40 40 0 0 0 3.92 0q-.25 1.2-.63 2.08a4 4 0 0 1-.84 1.31zm2.94-4.76q1.66-.15 2.95-.43a7 7 0 0 0 0-2.58q-1.3-.27-2.95-.43a18 18 0 0 1 0 3.44m-1.27-3.54a17 17 0 0 1 0 3.64 39 39 0 0 1-4.3 0 17 17 0 0 1 0-3.64 39 39 0 0 1 4.3 0m1.1-1.17q1.45.13 2.69.34a6.5 6.5 0 0 0-3.67-3.44q.65 1.26.98 3.1M8.48 1.5l.01.02q.41.37.84 1.31.38.89.63 2.08a40 40 0 0 0-3.92 0q.25-1.2.63-2.08a4 4 0 0 1 .85-1.32 7 7 0 0 1 .96 0m-2.75.4a6.5 6.5 0 0 0-3.67 3.44 29 29 0 0 1 2.7-.34q.31-1.83.97-3.1M4.58 6.28q-1.66.16-2.95.43a7 7 0 0 0 0 2.58q1.3.27 2.95.43a18 18 0 0 1 0-3.44m.17 4.71q-1.45-.12-2.69-.34a6.5 6.5 0 0 0 3.67 3.44q-.65-1.27-.98-3.1"
        clip-rule="evenodd" />
    </g>
    <defs>
      <clipPath id="a">
        <path fill="#fff" d="M0 0h16v16H0z" />
      </clipPath>
    </defs>
  </symbol>
  <symbol id="images" width="26" height="26" fill="none">
    <path fill="currentColor"
      d="M6.77 19.913a4.1 4.1 0 0 1-2.364-.75A4 4 0 0 1 2.932 17.2l-.038-.123a3.8 3.8 0 0 1-.188-1.153V8.672L.078 17.286c-.161.613-.07 1.263.252 1.811.323.548.851.95 1.473 1.12l16.753 4.404q.314.079.624.078c1.079 0 2.065-.703 2.34-1.739l.977-3.047zM9.747 8.745c1.196 0 2.167-.954 2.167-2.127 0-1.174-.971-2.128-2.167-2.128s-2.166.954-2.166 2.128c0 1.173.971 2.127 2.166 2.127" />
    <path fill="currentColor"
      d="M23.292 1.299H7.04c-.719 0-1.407.281-1.915.78a2.64 2.64 0 0 0-.794 1.879v11.7c0 1.466 1.216 2.659 2.709 2.659h16.25c1.494 0 2.71-1.193 2.71-2.66v-11.7C26 2.493 24.784 1.3 23.29 1.3M7.04 3.426h16.25c.145 0 .282.056.384.156.101.1.159.235.159.376v7.55l-3.423-3.92a1.9 1.9 0 0 0-.655-.48 2 2 0 0 0-.798-.174c-.276.001-.55.062-.8.178a1.9 1.9 0 0 0-.647.493l-4.024 4.742-1.311-1.284a1.92 1.92 0 0 0-1.343-.546 1.92 1.92 0 0 0-1.344.546L6.5 13.998V3.958c0-.141.057-.276.159-.376.101-.1.239-.156.383-.156" />
  </symbol>
  <symbol id="info" width="30" height="30" fill="none">
    <circle cx="15" cy="15" r="15" fill="#EEA8FD" opacity=".1" />
    <g clip-path="url(#a)">
      <path fill="#EEA8FD" fill-rule="evenodd"
        d="M15 9a6 6 0 1 0 0 12 6 6 0 0 0 0-12m-7.334 6a7.333 7.333 0 1 1 14.667 0 7.333 7.333 0 0 1-14.667 0m7.333-1.334a.667.667 0 0 1 .667.667v4a.667.667 0 1 1-1.333 0v-4a.667.667 0 0 1 .666-.667m0-1.333a.667.667 0 1 0 0-1.334.667.667 0 0 0 0 1.334"
        clip-rule="evenodd" />
    </g>
    <defs>
      <clipPath id="a">
        <path fill="#fff" d="M7 7h16v16H7z" />
      </clipPath>
    </defs>
  </symbol>
  <symbol id="loader-brand" width="38" height="38" stroke="#FA7275">
    <g fill="none" fill-rule="evenodd" stroke-width="3" transform="translate(1 1)">
      <circle cx="18" cy="18" r="18" stroke-opacity=".5" />
      <path d="M36 18c0-9.94-8.06-18-18-18">
        <animateTransform attributeName="transform" dur=".7s" from="0 18 18" repeatCount="indefinite" to="360 18 18"
          type="rotate" />
      </path>
    </g>
  </symbol>
  <symbol id="loader" width="38" height="38" stroke="#fff">
    <g fill="none" fill-rule="evenodd" stroke-width="2" transform="translate(1 1)">
      <circle cx="18" cy="18" r="18" stroke-opacity=".5" />
      <path d="M36 18c0-9.94-8.06-18-18-18">
        <animateTransform attributeName="transform" dur="5s" from="0 18 18" repeatCount="indefinite" to="360 18 18"
          type="rotate" />
      </path>
    </g>
  </symbol>
  <symbol id="logo-brand" width="53" height="52" fill="none">
    <rect width="48" height="48" fill="currentColor" opacity=".2" rx="24" />
    <rect width="32" height="32" x="21" y="20" fill="currentColor" rx="16" />
  </symbol>
  <symbol id="logo-full-brand" width="143" height="52" fill="none">
    <path fill="currentColor"
      d="M72.296 34.168q-1.68 0-3.024-.576-1.344-.6-2.112-1.68t-.768-2.52h2.928q.096 1.08.84 1.776.768.696 2.136.696 1.416 0 2.208-.672.792-.696.792-1.776 0-.84-.504-1.368a3.2 3.2 0 0 0-1.224-.816q-.72-.288-2.016-.624-1.632-.432-2.664-.864a4.5 4.5 0 0 1-1.728-1.392q-.72-.936-.72-2.496 0-1.44.72-2.52t2.016-1.656 3-.576q2.424 0 3.96 1.224 1.56 1.2 1.728 3.312H74.84q-.072-.912-.864-1.56t-2.088-.648q-1.176 0-1.92.6t-.744 1.728q0 .768.456 1.272.48.48 1.2.768t1.968.624q1.656.456 2.688.912a4.35 4.35 0 0 1 1.776 1.416q.744.936.744 2.52 0 1.272-.696 2.4-.672 1.128-1.992 1.824-1.296.672-3.072.672m12.18-11.16v7.32q0 .744.336 1.08.36.312 1.2.312h1.68V34h-2.16q-1.848 0-2.832-.864t-.984-2.808v-7.32h-1.56v-2.232h1.56v-3.288h2.76v3.288h3.216v2.232zM95.95 34.216q-1.872 0-3.384-.84a6.23 6.23 0 0 1-2.376-2.4q-.864-1.56-.864-3.6 0-2.016.888-3.576a6.13 6.13 0 0 1 2.424-2.4q1.536-.84 3.432-.84t3.432.84a6.13 6.13 0 0 1 2.424 2.4q.888 1.56.888 3.576t-.912 3.576a6.4 6.4 0 0 1-2.496 2.424q-1.56.84-3.456.84m0-2.376q1.056 0 1.968-.504.936-.504 1.512-1.512t.576-2.448-.552-2.424q-.552-1.008-1.464-1.512a4 4 0 0 0-1.968-.504q-1.056 0-1.968.504-.888.504-1.416 1.512-.528.984-.528 2.424 0 2.136 1.08 3.312 1.104 1.152 2.76 1.152m12.305-9.144q.6-1.008 1.584-1.56 1.008-.576 2.376-.576v2.832h-.696q-1.608 0-2.448.816-.816.816-.816 2.832V34h-2.736V20.776h2.736zm18.595 4.368q0 .744-.096 1.344H116.65q.12 1.584 1.176 2.544t2.592.96q2.208 0 3.12-1.848h2.952q-.6 1.824-2.184 3-1.56 1.152-3.888 1.152-1.896 0-3.408-.84a6.3 6.3 0 0 1-2.352-2.4q-.84-1.56-.84-3.6t.816-3.576q.84-1.56 2.328-2.4 1.512-.84 3.456-.84 1.872 0 3.336.816a5.75 5.75 0 0 1 2.28 2.304q.816 1.464.816 3.384m-2.856-.864q-.024-1.512-1.08-2.424t-2.616-.912q-1.416 0-2.424.912-1.008.888-1.2 2.424zm8.284-8.88V34h-2.736V17.32zm6.784 5.688v7.32q0 .744.336 1.08.36.312 1.2.312h1.68V34h-2.16q-1.848 0-2.832-.864t-.984-2.808v-7.32h-1.56v-2.232h1.56v-3.288h2.76v3.288h3.216v2.232z" />
    <rect width="48" height="48" fill="currentColor" opacity=".2" rx="24" />
    <rect width="32" height="32" x="21" y="20" fill="currentColor" rx="16" />
  </symbol>
  <symbol id="logo-full" width="224" height="82" fill="none">
    <path fill="currentColor"
      d="M112.71 53.735q-2.62 0-4.714-.898-2.096-.936-3.293-2.62-1.197-1.683-1.197-3.928h4.564q.15 1.684 1.31 2.769 1.197 1.085 3.33 1.085 2.208 0 3.442-1.048 1.235-1.085 1.235-2.768 0-1.31-.786-2.133-.748-.824-1.908-1.272-1.122-.45-3.143-.973-2.544-.674-4.153-1.347-1.572-.71-2.694-2.17-1.123-1.46-1.123-3.892 0-2.245 1.123-3.928 1.122-1.684 3.143-2.582t4.677-.898q3.778 0 6.174 1.908 2.432 1.872 2.694 5.164h-4.715q-.112-1.422-1.347-2.432t-3.255-1.01q-1.833 0-2.993.935-1.16.934-1.16 2.694 0 1.197.711 1.983.748.749 1.87 1.197 1.123.45 3.069.973 2.582.711 4.19 1.422 1.647.711 2.769 2.207 1.16 1.46 1.16 3.929 0 1.983-1.085 3.742-1.048 1.758-3.106 2.843-2.02 1.048-4.789 1.048m18.989-17.399v11.412q0 1.16.524 1.684.561.486 1.871.486h2.619v3.555h-3.367q-2.881 0-4.416-1.347-1.534-1.347-1.534-4.378V36.336h-2.432v-3.48h2.432v-5.125h4.303v5.126h5.014v3.48zm17.888 17.474q-2.918 0-5.276-1.31a9.7 9.7 0 0 1-3.704-3.741q-1.347-2.433-1.347-5.613 0-3.142 1.384-5.575 1.385-2.432 3.779-3.741t5.351-1.31q2.955 0 5.35 1.31t3.779 3.741 1.385 5.575q0 3.144-1.422 5.575a9.95 9.95 0 0 1-3.891 3.78q-2.433 1.308-5.388 1.309m0-3.704q1.646 0 3.068-.786 1.459-.786 2.357-2.357t.898-3.817q0-2.244-.86-3.779-.861-1.57-2.283-2.357a6.24 6.24 0 0 0-3.068-.786 6.24 6.24 0 0 0-3.068.786q-1.384.786-2.208 2.357-.823 1.535-.823 3.78 0 3.33 1.684 5.163 1.721 1.796 4.303 1.796M168.77 35.85a6.6 6.6 0 0 1 2.469-2.432q1.572-.898 3.705-.898v4.415h-1.086q-2.507 0-3.816 1.272-1.272 1.272-1.272 4.415v10.851h-4.266V32.857h4.266zm28.989 6.81q0 1.16-.149 2.095h-15.752q.186 2.469 1.833 3.966t4.041 1.497q3.442 0 4.864-2.881h4.602q-.935 2.843-3.405 4.677-2.431 1.796-6.061 1.796-2.956 0-5.313-1.31-2.32-1.347-3.667-3.741-1.31-2.433-1.309-5.613 0-3.18 1.272-5.575 1.31-2.432 3.629-3.741 2.357-1.31 5.388-1.31 2.918 0 5.201 1.272a8.96 8.96 0 0 1 3.554 3.592q1.272 2.282 1.272 5.276m-4.452-1.347q-.037-2.357-1.684-3.78-1.646-1.42-4.078-1.421-2.207 0-3.779 1.422-1.571 1.384-1.871 3.779zm12.916-13.844v26.004h-4.266V27.469zm10.576 8.867v11.412q0 1.16.524 1.684.561.486 1.871.486h2.619v3.555h-3.368q-2.88 0-4.415-1.347-1.533-1.347-1.534-4.378V36.336h-2.432v-3.48h2.432v-5.125h4.303v5.126h5.014v3.48z" />
    <rect width="74.832" height="74.832" fill="currentColor" opacity=".2" rx="37.416" />
    <rect width="49.888" height="49.888" x="32.739" y="31.18" fill="currentColor" rx="24.944" />
  </symbol>
  <symbol id="logout" width="24" height="24" fill="none">
    <path stroke="currentColor" stroke-linecap="round" stroke-linejoin="round" stroke-width="1.5"
      d="M8.25 9V5.25A2.25 2.25 0 0 1 10.5 3h6a2.25 2.25 0 0 1 2.25 2.25v13.5A2.25 2.25 0 0 1 16.5 21h-6a2.25 2.25 0 0 1-2.25-2.25V15m-3 0-3-3m0 0 3-3m-3 3H15" />
  </symbol>
  <symbol id="others" width="26" height="26" fill="none">
    <path fill="currentColor"
      d="M24.52 6.982c-.763-2.586-2.92-4.743-5.506-5.505-1.966-.572-3.325-.525-4.266.178-1.132.846-1.264 2.372-1.264 3.456v2.967c0 2.932 1.335 4.422 3.957 4.422h3.42c1.072 0 2.61-.131 3.456-1.264.727-.93.786-2.288.202-4.254" />
    <path fill="currentColor"
      d="M21.232 14.621a1.63 1.63 0 0 0-1.227-.56h-4.266a3.804 3.804 0 0 1-3.802-3.801V5.993a1.63 1.63 0 0 0-.56-1.227 1.62 1.62 0 0 0-1.275-.393c-2.8.357-5.374 1.894-7.055 4.206-1.692 2.324-2.312 5.16-1.775 7.997.774 4.099 4.051 7.376 8.163 8.15.655.132 1.31.191 1.966.191 2.157 0 4.242-.667 6.018-1.966 2.312-1.68 3.85-4.254 4.207-7.055.06-.465-.084-.93-.394-1.275" />
  </symbol>
  <symbol id="remove" width="26" height="26" fill="none">
    <path fill="#333F4E"
      d="M20.666 5.338c-4.228-4.227-11.102-4.227-15.33 0-4.224 4.226-4.224 11.102 0 15.328a10.8 10.8 0 0 0 7.666 3.169c2.775 0 5.55-1.056 7.664-3.169 4.226-4.226 4.226-11.102 0-15.328m-3.194 10.857a.902.902 0 1 1-1.277 1.277l-3.193-3.193L9.81 17.47a.904.904 0 1 1-1.278-1.277l3.192-3.193L8.532 9.81A.902.902 0 1 1 9.809 8.53l3.193 3.193 3.192-3.193a.902.902 0 1 1 1.278 1.278L14.279 13z"
      opacity=".3" />
  </symbol>
  <symbol id="search" width="20" height="20" fill="none">
    <circle cx="9.167" cy="9.167" r="6.667" stroke="#333F4E" stroke-linecap="round" stroke-linejoin="round"
      stroke-width="1.5" />
    <path stroke="#333F4E" stroke-linecap="round" stroke-linejoin="round" stroke-width="1.5"
      d="m13.75 14.13 4.167 4.167" />
  </symbol>
  <symbol id="share" width="30" height="30" fill="none">
    <circle cx="15" cy="15" r="15" fill="#F9AB72" opacity=".1" />
    <g clip-path="url(#a)">
      <mask id="b" fill="#fff">
        <path
          d="M19.387 16.962c-.934 0-1.769.426-2.323 1.093l-3.605-2.047a3 3 0 0 0 0-2.016l3.605-2.047a3.01 3.01 0 0 0 2.322 1.093 3.02 3.02 0 0 0 3.019-3.02A3.02 3.02 0 0 0 19.387 7a3.022 3.022 0 0 0-2.845 4.027l-3.605 2.047a3.01 3.01 0 0 0-2.322-1.092A3.02 3.02 0 0 0 7.595 15a3.02 3.02 0 0 0 3.02 3.019c.932 0 1.768-.426 2.322-1.093l3.605 2.047A3.022 3.022 0 0 0 19.387 23a3.02 3.02 0 0 0 3.018-3.018 3.02 3.02 0 0 0-3.018-3.02m0-8.906c1.081 0 1.962.88 1.962 1.962 0 1.083-.88 1.964-1.962 1.964a1.965 1.965 0 0 1-1.963-1.964c0-1.082.88-1.962 1.963-1.962m-8.772 8.906A1.965 1.965 0 0 1 8.652 15c0-1.082.88-1.962 1.963-1.962 1.082 0 1.962.88 1.962 1.962s-.88 1.962-1.962 1.962m8.772 4.982a1.965 1.965 0 0 1-1.963-1.962c0-1.083.88-1.963 1.963-1.963 1.081 0 1.962.88 1.962 1.963 0 1.081-.88 1.962-1.962 1.962" />
      </mask>
      <path fill="#F9AB72"
        d="M19.387 16.962c-.934 0-1.769.426-2.323 1.093l-3.605-2.047a3 3 0 0 0 0-2.016l3.605-2.047a3.01 3.01 0 0 0 2.322 1.093 3.02 3.02 0 0 0 3.019-3.02A3.02 3.02 0 0 0 19.387 7a3.022 3.022 0 0 0-2.845 4.027l-3.605 2.047a3.01 3.01 0 0 0-2.322-1.092A3.02 3.02 0 0 0 7.595 15a3.02 3.02 0 0 0 3.02 3.019c.932 0 1.768-.426 2.322-1.093l3.605 2.047A3.022 3.022 0 0 0 19.387 23a3.02 3.02 0 0 0 3.018-3.018 3.02 3.02 0 0 0-3.018-3.02m0-8.906c1.081 0 1.962.88 1.962 1.962 0 1.083-.88 1.964-1.962 1.964a1.965 1.965 0 0 1-1.963-1.964c0-1.082.88-1.962 1.963-1.962m-8.772 8.906A1.965 1.965 0 0 1 8.652 15c0-1.082.88-1.962 1.963-1.962 1.082 0 1.962.88 1.962 1.962s-.88 1.962-1.962 1.962m8.772 4.982a1.965 1.965 0 0 1-1.963-1.962c0-1.083.88-1.963 1.963-1.963 1.081 0 1.962.88 1.962 1.963 0 1.081-.88 1.962-1.962 1.962" />
      <path fill="#F9AB72"
        d="m17.064 18.055-1.112 1.96 1.64.931 1.206-1.451zm-3.605-2.047-2.123-.755-.633 1.782 1.644.933zM13.633 15H11.38V15zm-.174-1.008-1.113-1.96-1.643.934.633 1.781zm3.605-2.047 1.733-1.44-1.205-1.452-1.641.932zm5.34-1.927h-2.253zm-5.862 1.009 1.112 1.96 1.644-.934-.633-1.781zm-3.605 2.047-1.733 1.44 1.205 1.451 1.64-.931zm0 3.852 1.112-1.96-1.64-.93-1.206 1.45zm3.605 2.047 2.123.755.633-1.781-1.644-.933zm-.174 1.009h2.253v-.002zm6.037 0H20.15zm-3.018-5.273a5.27 5.27 0 0 0-4.056 1.906l3.467 2.88a.76.76 0 0 1 .589-.28zm-1.21 1.387-3.605-2.047-2.225 3.919 3.605 2.047zm-2.595.668a5.3 5.3 0 0 0 .304-1.765l-4.506.002a.8.8 0 0 1-.044.252zM15.886 15c0-.601-.102-1.198-.304-1.764l-4.246 1.51a.8.8 0 0 1 .043.252zm-1.314.95 3.605-2.047-2.226-3.919-3.605 2.048zm.758-2.567a5.27 5.27 0 0 0 4.056 1.907v-4.506a.76.76 0 0 1-.588-.28zm4.056 1.907a5.276 5.276 0 0 0 5.272-5.273h-4.507a.77.77 0 0 1-.765.767zm5.272-5.272a5.275 5.275 0 0 0-5.271-5.272v4.506c.42 0 .764.345.764.765zm-5.271-5.272a5.275 5.275 0 0 0-5.273 5.271h4.507c0-.42.345-.765.766-.765zm-5.273 5.271c0 .617.108 1.212.304 1.764l4.247-1.51a.8.8 0 0 1-.044-.254zm1.315-.95-3.605 2.047 2.226 3.919 3.604-2.048zm-.759 2.566a5.27 5.27 0 0 0-4.055-1.906v4.507a.76.76 0 0 1 .588.279zm-4.055-1.906A5.276 5.276 0 0 0 5.342 15H9.85c0-.42.345-.765.766-.765zM5.342 15a5.276 5.276 0 0 0 5.273 5.272v-4.507A.77.77 0 0 1 9.849 15zm5.273 5.272a5.27 5.27 0 0 0 4.055-1.906l-3.466-2.88a.76.76 0 0 1-.59.28zm1.21-1.386 3.604 2.047 2.225-3.92-3.605-2.046zm2.594-.668a5.3 5.3 0 0 0-.305 1.765l4.507-.003q0-.128.044-.252zm-.305 1.764a5.275 5.275 0 0 0 5.272 5.271v-4.506a.77.77 0 0 1-.765-.765zm5.272 5.271a5.275 5.275 0 0 0 5.272-5.271h-4.507c0 .42-.345.765-.765.765zm5.272-5.271a5.275 5.275 0 0 0-5.271-5.273v4.507c.419 0 .764.345.764.765zm-5.271-9.672a.29.29 0 0 1-.292-.292h4.507a4.22 4.22 0 0 0-4.215-4.215zm-.292-.292c0-.16.128-.29.292-.29v4.507a4.22 4.22 0 0 0 4.215-4.217zm.292-.29c.163 0 .29.13.29.29h-4.506a4.22 4.22 0 0 0 4.216 4.217zm.29.29a.29.29 0 0 1-.29.292V5.803a4.22 4.22 0 0 0-4.216 4.215zm-9.062 4.691c.162 0 .29.128.29.291H6.4a4.22 4.22 0 0 0 4.216 4.216zm.29.291a.29.29 0 0 1-.29.291v-4.506A4.22 4.22 0 0 0 6.399 15zm-.29.291a.29.29 0 0 1-.292-.29h4.507a4.22 4.22 0 0 0-4.215-4.216zm-.292-.29a.29.29 0 0 1 .292-.292v4.507A4.22 4.22 0 0 0 14.83 15zm9.064 4.69c.162 0 .29.128.29.29h-4.506a4.22 4.22 0 0 0 4.216 4.216zm.29.29c0 .162-.127.291-.29.291v-4.507a4.22 4.22 0 0 0-4.216 4.217zm-.29.291a.29.29 0 0 1-.292-.29h4.507a4.22 4.22 0 0 0-4.215-4.217zm-.292-.29a.29.29 0 0 1 .292-.292v4.507a4.22 4.22 0 0 0 4.215-4.215z"
        mask="url(#b)" />
    </g>
    <defs>
      <clipPath id="a">
        <path fill="#fff" d="M7 7h16v16H7z" />
      </clipPath>
    </defs>
  </symbol>
  <symbol id="upload" width="21" height="20" fill="none">
    <g clip-path="url(#a)">
      <path fill="currentColor"
        d="M16.127 17.276h-4.29V12.94h1.417c.36 0 .572-.408.36-.703l-2.759-3.816a.44.44 0 0 0-.715 0l-2.758 3.816a.442.442 0 0 0 .36.703H9.16v4.336H4.354C2.208 17.158.5 15.151.5 12.977c0-1.5.813-2.807 2.019-3.514A2.768 2.768 0 0 1 6.07 5.908a5.55 5.55 0 0 1 5.023-3.184 5.557 5.557 0 0 1 5.517 5.014c2.21.38 3.89 2.427 3.89 4.745 0 2.476-1.929 4.622-4.373 4.793" />
    </g>
    <defs>
      <clipPath id="a">
        <path fill="currentColor" d="M.5 0h20v20H.5z" />
      </clipPath>
    </defs>
  </symbol>
  <symbol id="video" width="26" height="26" fill="none">
    <path fill="currentColor"
      d="M22.913 6.685c-.444-.239-1.376-.488-2.643.4l-1.593 1.127c-.119-3.369-1.581-4.69-5.135-4.69h-6.5c-3.705 0-5.146 1.44-5.146 5.145v8.667c0 2.492 1.355 5.146 5.146 5.146h6.5c3.554 0 5.016-1.322 5.135-4.691l1.593 1.127c.672.476 1.256.628 1.722.628.401 0 .715-.12.921-.227.444-.228 1.192-.846 1.192-2.395V9.08c0-1.55-.748-2.167-1.192-2.394m-10.996 5.644a2.04 2.04 0 0 1-2.036-2.037c0-1.126.92-2.036 2.036-2.036s2.037.91 2.037 2.036c0 1.127-.92 2.037-2.037 2.037" />
  </symbol>
  <symbol id="github" width="98" height="96">
    <path fill-rule="evenodd" clip-rule="evenodd"
      d="M48.854 0C21.839 0 0 22 0 49.217c0 21.756 13.993 40.172 33.405 46.69 2.427.49 3.316-1.059 3.316-2.362 0-1.141-.08-5.052-.08-9.127-13.59 2.934-16.42-5.867-16.42-5.867-2.184-5.704-5.42-7.17-5.42-7.17-4.448-3.015.324-3.015.324-3.015 4.934.326 7.523 5.052 7.523 5.052 4.367 7.496 11.404 5.378 14.235 4.074.404-3.178 1.699-5.378 3.074-6.6-10.839-1.141-22.243-5.378-22.243-24.283 0-5.378 1.94-9.778 5.014-13.2-.485-1.222-2.184-6.275.486-13.038 0 0 4.125-1.304 13.426 5.052a46.97 46.97 0 0 1 12.214-1.63c4.125 0 8.33.571 12.213 1.63 9.302-6.356 13.427-5.052 13.427-5.052 2.67 6.763.97 11.816.485 13.038 3.155 3.422 5.015 7.822 5.015 13.2 0 18.905-11.404 23.06-22.324 24.283 1.78 1.548 3.316 4.481 3.316 9.126 0 6.6-.08 11.897-.08 13.526 0 1.304.89 2.853 3.316 2.364 19.412-6.52 33.405-24.935 33.405-46.691C97.707 22 75.788 0 48.854 0z"
      fill="#24292f" />
  </symbol>
  <symbol id="github-white" width="98" height="96">
    <path fill-rule="evenodd" clip-rule="evenodd"
      d="M48.854 0C21.839 0 0 22 0 49.217c0 21.756 13.993 40.172 33.405 46.69 2.427.49 3.316-1.059 3.316-2.362 0-1.141-.08-5.052-.08-9.127-13.59 2.934-16.42-5.867-16.42-5.867-2.184-5.704-5.42-7.17-5.42-7.17-4.448-3.015.324-3.015.324-3.015 4.934.326 7.523 5.052 7.523 5.052 4.367 7.496 11.404 5.378 14.235 4.074.404-3.178 1.699-5.378 3.074-6.6-10.839-1.141-22.243-5.378-22.243-24.283 0-5.378 1.94-9.778 5.014-13.2-.485-1.222-2.184-6.275.486-13.038 0 0 4.125-1.304 13.426 5.052a46.97 46.97 0 0 1 12.214-1.63c4.125 0 8.33.571 12.213 1.63 9.302-6.356 13.427-5.052 13.427-5.052 2.67 6.763.97 11.816.485 13.038 3.155 3.422 5.015 7.822 5.015 13.2 0 18.905-11.404 23.06-22.324 24.283 1.78 1.548 3.316 4.481 3.316 9.126 0 6.6-.08 11.897-.08 13.526 0 1.304.89 2.853 3.316 2.364 19.412-6.52 33.405-24.935 33.405-46.691C97.707 22 75.788 0 48.854 0z"
      fill="#fff" />
  </symbol>
  <symbol id="grid" width="22" height="22" fill="none">
    <path
      d="M6.63732 1.83398H4.89565C2.88815 1.83398 1.83398 2.88815 1.83398 4.88648V6.62815C1.83398 8.62648 2.88815 9.68065 4.88648 9.68065H6.62815C8.62648 9.68065 9.68065 8.62648 9.68065 6.62815V4.88648C9.68982 2.88815 8.63565 1.83398 6.63732 1.83398Z"
      fill="currentColor" />
    <path
      d="M17.1125 1.83398H15.3709C13.3725 1.83398 12.3184 2.88815 12.3184 4.88648V6.62815C12.3184 8.62648 13.3725 9.68065 15.3709 9.68065H17.1125C19.1109 9.68065 20.165 8.62648 20.165 6.62815V4.88648C20.165 2.88815 19.1109 1.83398 17.1125 1.83398Z"
      fill="currentColor" />
    <path
      d="M17.1125 12.3105H15.3709C13.3725 12.3105 12.3184 13.3647 12.3184 15.363V17.1047C12.3184 19.103 13.3725 20.1572 15.3709 20.1572H17.1125C19.1109 20.1572 20.165 19.103 20.165 17.1047V15.363C20.165 13.3647 19.1109 12.3105 17.1125 12.3105Z"
      fill="currentColor" />
    <path
      d="M6.63732 12.3105H4.89565C2.88815 12.3105 1.83398 13.3647 1.83398 15.363V17.1047C1.83398 19.1122 2.88815 20.1664 4.88648 20.1664H6.62815C8.62648 20.1664 9.68065 19.1122 9.68065 17.1139V15.3722C9.68982 13.3647 8.63565 12.3105 6.63732 12.3105Z"
      fill="currentColor" />
  </symbol>
  <symbol id="menu" width="22" height="22" fill="none">
    <g>
      <rect x="1.83398" y="3.66602" width="18.3333" height="2.75" rx="1.375" fill="currentColor" />
      <rect x="1.83398" y="9.625" width="18.3333" height="2.75" rx="1.375" fill="currentColor" />
      <rect x="1.83398" y="15.584" width="18.3333" height="2.75" rx="1.375" fill="currentColor" />
    </g>
  </symbol>
  <symbol id="arrow" width="18" height="18" viewBox="0 0 18 18" fill="none">
    <path d="M13.5523 7.1775L8.99977 2.625L4.44727 7.1775" stroke="currentColor" stroke-width="1.5"
      stroke-miterlimit="10" stroke-linecap="round" stroke-linejoin="round" />
    <path d="M9 15.3749V2.75244" stroke="currentColor" stroke-width="1.5" stroke-miterlimit="10" stroke-linecap="round"
      stroke-linejoin="round" />
  </symbol>
</svg>