<svg xmlns="http://www.w3.org/2000/svg" width="26" height="26" fill="none"><path fill="#fff" d="M10.517 2.166H3.746c-.871 0-1.58.709-1.58 1.58v4.062c0 .872.709 1.58 1.58 1.58h6.77c.872 0 1.58-.708 1.58-1.58V3.746c0-.871-.708-1.58-1.58-1.58m0 9.028H3.746c-.871 0-1.58.708-1.58 1.58v9.479c0 .871.709 1.58 1.58 1.58h6.77c.872 0 1.58-.709 1.58-1.58v-9.48c0-.87-.708-1.58-1.58-1.58m11.736 5.416h-6.771c-.871 0-1.58.71-1.58 1.58v4.063c0 .871.709 1.58 1.58 1.58h6.77c.872 0 1.58-.709 1.58-1.58V18.19c0-.87-.708-1.58-1.58-1.58m0-14.444h-6.771c-.871 0-1.58.709-1.58 1.58v9.479c0 .871.709 1.58 1.58 1.58h6.77c.872 0 1.58-.709 1.58-1.58v-9.48c0-.87-.708-1.579-1.58-1.579"/></svg>