<svg xmlns="http://www.w3.org/2000/svg" width="30" height="30" fill="none"><circle cx="15" cy="15" r="15" fill="#FF7474" opacity=".1"/><path stroke="#FF7474" stroke-linecap="round" stroke-linejoin="round" d="M21 10.988a68 68 0 0 0-6.68-.334q-1.98 0-3.96.2L9 10.988M12.666 10.314l.147-.873c.106-.634.186-1.107 1.313-1.107h1.747c1.126 0 1.213.5 1.313 1.113l.147.867M19.567 13.094l-.433 6.713c-.074 1.047-.134 1.86-1.994 1.86h-4.28c-1.86 0-1.92-.813-1.993-1.86l-.433-6.713M13.887 18h2.22M13.334 15.334h3.333"/></svg>