<svg xmlns="http://www.w3.org/2000/svg" width="34" height="34" fill="none"><path stroke="#A3B2C7" stroke-width="1.507" d="M14.166 26.917a2.84 2.84 0 0 0 2.833 2.833 2.84 2.84 0 0 0 2.834-2.833 2.84 2.84 0 0 0-2.834-2.834 2.84 2.84 0 0 0-2.833 2.834ZM14.166 7.083a2.84 2.84 0 0 0 2.833 2.833 2.84 2.84 0 0 0 2.834-2.833 2.84 2.84 0 0 0-2.834-2.834 2.84 2.84 0 0 0-2.833 2.834ZM14.166 17a2.84 2.84 0 0 0 2.833 2.834 2.84 2.84 0 0 0 2.834-2.833 2.84 2.84 0 0 0-2.834-2.834 2.84 2.84 0 0 0-2.833 2.834Z"/></svg>