<svg xmlns="http://www.w3.org/2000/svg" width="30" height="30" fill="none"><circle cx="15" cy="15" r="15" fill="#56B8FF" opacity=".1"/><path stroke="#56B8FF" stroke-linecap="round" stroke-linejoin="round" d="M15 8.334v4.667l1.333-1.334"/><path stroke="#56B8FF" stroke-linecap="round" stroke-linejoin="round" stroke-width="1.5" d="m15 13.001-1.334-1.333"/><path stroke="#56B8FF" stroke-linecap="round" stroke-linejoin="round" d="M8.32 15.668h2.94c.254 0 .48.14.594.367l.78 1.56c.226.453.686.74 1.193.74h2.353c.507 0 .967-.287 1.194-.74l.78-1.56a.67.67 0 0 1 .593-.367h2.907"/><path stroke="#56B8FF" stroke-linecap="round" stroke-linejoin="round" d="M11.667 9.754c-2.36.347-3.333 1.733-3.333 4.58V17c0 3.333 1.333 4.666 4.667 4.666h4c3.333 0 4.666-1.333 4.666-4.666v-2.667c0-2.847-.973-4.233-3.333-4.58"/></svg>