<svg xmlns="http://www.w3.org/2000/svg" width="30" height="30" fill="none"><circle cx="15" cy="15" r="15" fill="#3DD9B3" opacity=".1"/><path fill="#3DD9B3" fill-rule="evenodd" d="M15.889 9.445A5.556 5.556 0 0 0 10.333 15 .667.667 0 1 1 9 15a6.889 6.889 0 1 1 13.115 2.953.666.666 0 1 1-1.205-.572 5.556 5.556 0 0 0-5.021-7.936m-5.677 8.191a.667.667 0 0 1 .915.227 5.55 5.55 0 0 0 4.762 2.693 5.53 5.53 0 0 0 2.863-.794.667.667 0 0 1 .688 1.143 6.85 6.85 0 0 1-3.551.984c-2.507 0-4.7-1.34-5.904-3.338a.667.667 0 0 1 .226-.915" clip-rule="evenodd"/><path fill="#3DD9B3" fill-rule="evenodd" d="M15.446 11.668c.368 0 .667.298.667.667v2.888h2.889a.667.667 0 0 1 0 1.334h-3.556a.667.667 0 0 1-.667-.667v-3.555c0-.369.299-.667.667-.667M7.52 11.78a.667.667 0 0 1 .924.185l1.408 2.112 2.112-1.408a.667.667 0 1 1 .74 1.11l-2.667 1.777a.667.667 0 0 1-.925-.185l-1.777-2.667a.667.667 0 0 1 .185-.924" clip-rule="evenodd"/></svg>