<svg xmlns="http://www.w3.org/2000/svg" width="241" height="118" fill="none"><path fill="#F2F4F8" d="M15 60c0-27.614 22.386-50 50-50h176v108H15z"/><g filter="url(#a)" opacity=".4"><circle cx="48" cy="48" r="33" fill="#3DD9B3"/></g><circle cx="48" cy="43" r="33" fill="#3DD9B3"/><path fill="#fff" d="M60.2 35.227c-.546-.293-1.693-.6-3.253.494l-1.96 1.386c-.146-4.146-1.946-5.773-6.32-5.773h-8c-4.56 0-6.333 1.773-6.333 6.333v10.667c0 3.067 1.667 6.333 6.333 6.333h8c4.374 0 6.174-1.626 6.32-5.773l1.96 1.387c.827.586 1.547.773 2.12.773.494 0 .88-.147 1.134-.28.546-.28 1.466-1.04 1.466-2.947v-9.653c0-1.907-.92-2.667-1.466-2.947m-13.533 6.947a2.51 2.51 0 0 1-2.506-2.507 2.51 2.51 0 0 1 2.506-2.506 2.51 2.51 0 0 1 2.507 2.506 2.51 2.51 0 0 1-2.507 2.507"/><mask id="b" width="226" height="86" x="15" y="32" maskUnits="userSpaceOnUse" style="mask-type:alpha"><path fill="#D9D9D9" d="M15 32h226v86H15z"/></mask><g mask="url(#b)"><path fill="#fff" d="M15.133 132.681v-18.576c-.806-8.634 1.165-25.76 31.703-27.892 28.048-1.958 34.017-5.912 48.717-31.682 12.1-21.214 30.573-21.615 47.49-21.983 2.216-.049 4.406-.096 6.551-.19 11.369-.497 48.487-.556 73.906-.357C252 32 241 29.71 241 40.5v183.786c0 10.888-8.854 19.714-19.775 19.714H34.775c-10.921 0-19.775-8.826-19.775-19.714v-91.606z"/></g><defs><filter id="a" width="94.25" height="94.25" x=".875" y=".875" color-interpolation-filters="sRGB" filterUnits="userSpaceOnUse"><feFlood flood-opacity="0" result="BackgroundImageFix"/><feBlend in="SourceGraphic" in2="BackgroundImageFix" result="shape"/><feGaussianBlur result="effect1_foregroundBlur_228_4006" stdDeviation="7.063"/></filter></defs></svg>