<svg xmlns="http://www.w3.org/2000/svg" width="45" height="45" fill="none"><path fill="#6295F2" d="M38.138 10.271 30.196 3.13a1.43 1.43 0 0 0-.957-.371H11.783a4.47 4.47 0 0 0-4.6 4.285V38.47a4.47 4.47 0 0 0 4.6 4.285H34.01a4.47 4.47 0 0 0 4.6-4.285v-27.14a1.43 1.43 0 0 0-.472-1.058m-15.484 5.343h.485a5.47 5.47 0 0 1 3.871 9.342l-1.914 1.914a2.54 2.54 0 0 0-.771 1.842 1.428 1.428 0 1 1-2.857 0c0-1.45.575-2.843 1.6-3.87l1.914-1.915a2.54 2.54 0 0 0 .771-1.842 2.614 2.614 0 0 0-2.614-2.614h-.485a2.614 2.614 0 0 0-2.614 2.614 1.428 1.428 0 1 1-2.857 0 5.485 5.485 0 0 1 5.47-5.471m-1.186 17.14a2 2 0 0 1 0-.27.9.9 0 0 1 .086-.272q.046-.137.128-.257a2 2 0 0 1 .172-.214c.135-.13.296-.232.471-.3a1.43 1.43 0 0 1 1.557.3q.092.102.171.214.082.12.129.257a.9.9 0 0 1 .086.271q.039.135.057.272a1.5 1.5 0 0 1-.415 1.014l-.214.172q-.12.08-.257.128l-.257.114h-.286a1.4 1.4 0 0 1-.543-.114 1.4 1.4 0 0 1-.47-.3 1.5 1.5 0 0 1-.415-1.014"/><path fill="#98B8FE" d="M38.61 11.326v2.857h-8.57a4.286 4.286 0 0 1-4.285-4.285V2.756h3.485c.354 0 .695.133.957.371l7.942 7.142a1.43 1.43 0 0 1 .471 1.057"/><path fill="url(#a)" d="M38.438 32.468a.085.085 0 0 1 .085-.086.086.086 0 0 1 .086.086v6a4.47 4.47 0 0 1-4.6 4.285H11.784a4.47 4.47 0 0 1-4.6-4.286v-5.97a.086.086 0 0 1 .172 0 4.57 4.57 0 0 0 4.428 3.113H34.01a4.57 4.57 0 0 0 4.428-3.142"/><defs><linearGradient id="a" x1="22.896" x2="22.896" y1="42.752" y2="32.41" gradientUnits="userSpaceOnUse"><stop offset=".14" stop-color="#3758C0"/><stop offset=".24" stop-color="#446BCF"/><stop offset=".4" stop-color="#5582E2"/><stop offset=".55" stop-color="#5F90EE"/><stop offset=".68" stop-color="#6295F2"/></linearGradient></defs></svg>