<svg xmlns="http://www.w3.org/2000/svg" width="40" height="40" fill="none"><path fill="#7B8E9D" d="M13.17 0h13.545l11.96 11.96v22.967c0 2.79-2.284 5.073-5.073 5.073H13.17c-2.789 0-5.072-2.284-5.072-5.073V5.073C8.098 2.283 10.38 0 13.17 0"/><path fill="#62727E" d="m26.715 0 11.96 11.96H28.006c-.71 0-1.291-.58-1.291-1.291zM2.438 17.033h27.548c.612 0 1.113.5 1.113 1.113v10.106c0 .613-.5 1.114-1.113 1.114H2.438c-.613 0-1.114-.501-1.114-1.114V18.146c0-.613.5-1.113 1.114-1.113"/><path fill="#fff" d="m17.845 20.062-1.884 3.136 1.884 3.136a.626.626 0 1 1-1.072.645l-1.542-2.566-1.541 2.566a.625.625 0 1 1-1.073-.645l1.884-3.136-1.884-3.136a.626.626 0 1 1 1.073-.645l1.541 2.566 1.542-2.566a.626.626 0 1 1 1.072.645m-7.325-.948H6.364a.626.626 0 1 0 0 1.251h1.452v6.292a.626.626 0 1 0 1.252 0v-6.292h1.452a.626.626 0 1 0 0-1.251m13.579 0h-4.156a.625.625 0 1 0 0 1.251h1.452v6.292a.626.626 0 1 0 1.251 0v-6.292H24.1a.626.626 0 1 0 0-1.251"/></svg>