<svg xmlns="http://www.w3.org/2000/svg" width="44" height="44" fill="none"><path fill="#F9AB72" d="M13.133 31.838A5.84 5.84 0 0 1 9.77 30.77a5.68 5.68 0 0 1-2.098-2.793l-.054-.174a5.4 5.4 0 0 1-.267-1.64v-10.32L3.611 28.1c-.23.872-.1 1.797.359 2.577a3.5 3.5 0 0 0 2.095 1.593l23.841 6.268q.448.112.888.112c1.536 0 2.939-1 3.332-2.475l1.39-4.337zm4.24-15.893c1.7 0 3.083-1.358 3.083-3.027S19.073 9.89 17.373 9.89s-3.084 1.357-3.084 3.027 1.383 3.027 3.084 3.027"/><path fill="#F9AB72" d="M36.645 5.35H13.518a3.9 3.9 0 0 0-2.724 1.11 3.75 3.75 0 0 0-1.13 2.674v16.65c0 2.085 1.73 3.784 3.855 3.784h23.126c2.125 0 3.855-1.699 3.855-3.784V9.134c0-2.086-1.73-3.784-3.855-3.784M13.518 8.377h23.127c.205 0 .401.08.545.222a.75.75 0 0 1 .226.535v10.745l-4.87-5.58a2.8 2.8 0 0 0-.932-.683 2.8 2.8 0 0 0-1.136-.247 2.7 2.7 0 0 0-1.137.253 2.7 2.7 0 0 0-.923.702l-5.726 6.748-1.865-1.827a2.73 2.73 0 0 0-1.912-.777c-.717 0-1.405.28-1.912.777l-4.255 4.176V9.134c0-.201.08-.394.225-.535a.78.78 0 0 1 .545-.222"/></svg>