<svg xmlns="http://www.w3.org/2000/svg" width="40" height="40" fill="none"><path fill="#E5252A" d="M13.17 0h13.547l11.958 11.96v22.967c0 2.79-2.282 5.073-5.073 5.073H13.17c-2.789 0-5.07-2.284-5.07-5.073V5.073C8.1 2.283 10.38 0 13.17 0"/><path fill="#B71D21" d="m26.717 0 11.958 11.96H28.006c-.71 0-1.29-.58-1.29-1.291zM2.438 17.033h27.548c.612 0 1.113.5 1.113 1.113v10.106c0 .613-.5 1.114-1.113 1.114H2.438c-.613 0-1.114-.501-1.114-1.114V18.146c0-.613.5-1.113 1.114-1.113"/><path fill="#fff" d="M9.2 19.094H7.122a.646.646 0 0 0-.645.645v6.918a.646.646 0 0 0 1.291 0V24.63H9.2a2.727 2.727 0 0 0 2.724-2.723v-.09A2.727 2.727 0 0 0 9.2 19.094m1.433 2.813c0 .79-.643 1.432-1.433 1.432H7.768v-2.954H9.2c.79 0 1.432.643 1.432 1.432zm5.517-2.813h-2.078a.646.646 0 0 0-.646.645v6.918c0 .356.29.646.646.646h2.078a2.727 2.727 0 0 0 2.723-2.724v-2.762a2.727 2.727 0 0 0-2.723-2.723m1.432 5.485c0 .79-.643 1.432-1.432 1.432h-1.432v-5.626h1.432c.79 0 1.432.643 1.432 1.432zm4.21-4.194v1.788h2.994a.646.646 0 0 1 0 1.292h-2.993v3.192a.646.646 0 0 1-1.292 0V19.74c0-.357.29-.646.646-.646h4.156a.646.646 0 0 1 0 1.291z"/></svg>