<svg xmlns="http://www.w3.org/2000/svg" width="44" height="44" fill="none"><path fill="#56B8FF" d="M33.462 9.72c.204.321-.145.694-.516.61a8.3 8.3 0 0 0-2.343-.323H25.38a.5.5 0 0 1-.4-.2l-1.854-2.468c-.217-.307-.012-.755.364-.755h4.245a6.78 6.78 0 0 1 5.727 3.136"/><path fill="#56B8FF" d="M34.55 13.583a6.4 6.4 0 0 0-2.236-1.033 6.4 6.4 0 0 0-1.71-.231h-5.736c-.894 0-.956-.077-1.434-.71l-2.158-2.867c-1.002-1.34-1.788-2.158-4.301-2.158h-3.577a6.816 6.816 0 0 0-6.814 6.814v17.205a6.816 6.816 0 0 0 6.814 6.814h17.205a6.816 6.816 0 0 0 6.814-6.814v-11.47a6.77 6.77 0 0 0-2.867-5.55m-8.865 15.109h-7.384a1.06 1.06 0 0 1-1.064-1.08c0-.585.462-1.079 1.064-1.079h7.384c.602 0 1.08.493 1.08 1.08 0 .6-.479 1.079-1.08 1.079"/></svg>