<svg xmlns="http://www.w3.org/2000/svg" width="30" height="30" fill="none"><circle cx="15" cy="15" r="15" fill="#EEA8FD" opacity=".1"/><g clip-path="url(#a)"><path fill="#EEA8FD" fill-rule="evenodd" d="M15 9a6 6 0 1 0 0 12 6 6 0 0 0 0-12m-7.334 6a7.333 7.333 0 1 1 14.667 0 7.333 7.333 0 0 1-14.667 0m7.333-1.334a.667.667 0 0 1 .667.667v4a.667.667 0 1 1-1.333 0v-4a.667.667 0 0 1 .666-.667m0-1.333a.667.667 0 1 0 0-1.334.667.667 0 0 0 0 1.334" clip-rule="evenodd"/></g><defs><clipPath id="a"><path fill="#fff" d="M7 7h16v16H7z"/></clipPath></defs></svg>