<svg xmlns="http://www.w3.org/2000/svg" width="224" height="82" fill="none"><path fill="#fff" d="M112.71 53.735q-2.62 0-4.714-.898-2.096-.936-3.293-2.62-1.197-1.683-1.197-3.928h4.564q.15 1.684 1.31 2.769 1.197 1.085 3.33 1.085 2.208 0 3.442-1.048 1.235-1.085 1.235-2.768 0-1.31-.786-2.133-.748-.824-1.908-1.272-1.122-.45-3.143-.973-2.544-.674-4.153-1.347-1.572-.71-2.694-2.17-1.123-1.46-1.123-3.892 0-2.245 1.123-3.928 1.122-1.684 3.143-2.582t4.677-.898q3.778 0 6.174 1.908 2.432 1.872 2.694 5.164h-4.715q-.112-1.422-1.347-2.432t-3.255-1.01q-1.833 0-2.993.935-1.16.934-1.16 2.694 0 1.197.711 1.983.748.749 1.87 1.197 1.123.45 3.069.973 2.582.711 4.19 1.422 1.647.711 2.769 2.207 1.16 1.46 1.16 3.929 0 1.983-1.085 3.742-1.048 1.758-3.106 2.843-2.02 1.048-4.789 1.048m18.989-17.399v11.412q0 1.16.524 1.684.561.486 1.871.486h2.619v3.555h-3.367q-2.881 0-4.416-1.347-1.534-1.347-1.534-4.378V36.336h-2.432v-3.48h2.432v-5.125h4.303v5.126h5.014v3.48zm17.888 17.474q-2.918 0-5.276-1.31a9.7 9.7 0 0 1-3.704-3.741q-1.347-2.433-1.347-5.613 0-3.142 1.384-5.575 1.385-2.432 3.779-3.741t5.351-1.31q2.955 0 5.35 1.31t3.779 3.741 1.385 5.575q0 3.144-1.422 5.575a9.95 9.95 0 0 1-3.891 3.78q-2.433 1.308-5.388 1.309m0-3.704q1.646 0 3.068-.786 1.459-.786 2.357-2.357t.898-3.817q0-2.244-.86-3.779-.861-1.57-2.283-2.357a6.24 6.24 0 0 0-3.068-.786 6.24 6.24 0 0 0-3.068.786q-1.384.786-2.208 2.357-.823 1.535-.823 3.78 0 3.33 1.684 5.163 1.721 1.796 4.303 1.796M168.77 35.85a6.6 6.6 0 0 1 2.469-2.432q1.572-.898 3.705-.898v4.415h-1.086q-2.507 0-3.816 1.272-1.272 1.272-1.272 4.415v10.851h-4.266V32.857h4.266zm28.989 6.81q0 1.16-.149 2.095h-15.752q.186 2.469 1.833 3.966t4.041 1.497q3.442 0 4.864-2.881h4.602q-.935 2.843-3.405 4.677-2.431 1.796-6.061 1.796-2.956 0-5.313-1.31-2.32-1.347-3.667-3.741-1.31-2.433-1.309-5.613 0-3.18 1.272-5.575 1.31-2.432 3.629-3.741 2.357-1.31 5.388-1.31 2.918 0 5.201 1.272a8.96 8.96 0 0 1 3.554 3.592q1.272 2.282 1.272 5.276m-4.452-1.347q-.037-2.357-1.684-3.78-1.646-1.42-4.078-1.421-2.207 0-3.779 1.422-1.571 1.384-1.871 3.779zm12.916-13.844v26.004h-4.266V27.469zm10.576 8.867v11.412q0 1.16.524 1.684.561.486 1.871.486h2.619v3.555h-3.368q-2.88 0-4.415-1.347-1.533-1.347-1.534-4.378V36.336h-2.432v-3.48h2.432v-5.125h4.303v5.126h5.014v3.48z"/><rect width="74.832" height="74.832" fill="#fff" opacity=".2" rx="37.416"/><rect width="49.888" height="49.888" x="32.739" y="31.18" fill="#fff" rx="24.944"/></svg>