<svg xmlns="http://www.w3.org/2000/svg" width="143" height="52" fill="none"><path fill="#FA7275" d="M72.296 34.168q-1.68 0-3.024-.576-1.344-.6-2.112-1.68t-.768-2.52h2.928q.096 1.08.84 1.776.768.696 2.136.696 1.416 0 2.208-.672.792-.696.792-1.776 0-.84-.504-1.368a3.2 3.2 0 0 0-1.224-.816q-.72-.288-2.016-.624-1.632-.432-2.664-.864a4.5 4.5 0 0 1-1.728-1.392q-.72-.936-.72-2.496 0-1.44.72-2.52t2.016-1.656 3-.576q2.424 0 3.96 1.224 1.56 1.2 1.728 3.312H74.84q-.072-.912-.864-1.56t-2.088-.648q-1.176 0-1.92.6t-.744 1.728q0 .768.456 1.272.48.48 1.2.768t1.968.624q1.656.456 2.688.912a4.35 4.35 0 0 1 1.776 1.416q.744.936.744 2.52 0 1.272-.696 2.4-.672 1.128-1.992 1.824-1.296.672-3.072.672m12.18-11.16v7.32q0 .744.336 1.08.36.312 1.2.312h1.68V34h-2.16q-1.848 0-2.832-.864t-.984-2.808v-7.32h-1.56v-2.232h1.56v-3.288h2.76v3.288h3.216v2.232zM95.95 34.216q-1.872 0-3.384-.84a6.23 6.23 0 0 1-2.376-2.4q-.864-1.56-.864-3.6 0-2.016.888-3.576a6.13 6.13 0 0 1 2.424-2.4q1.536-.84 3.432-.84t3.432.84a6.13 6.13 0 0 1 2.424 2.4q.888 1.56.888 3.576t-.912 3.576a6.4 6.4 0 0 1-2.496 2.424q-1.56.84-3.456.84m0-2.376q1.056 0 1.968-.504.936-.504 1.512-1.512t.576-2.448-.552-2.424q-.552-1.008-1.464-1.512a4 4 0 0 0-1.968-.504q-1.056 0-1.968.504-.888.504-1.416 1.512-.528.984-.528 2.424 0 2.136 1.08 3.312 1.104 1.152 2.76 1.152m12.305-9.144q.6-1.008 1.584-1.56 1.008-.576 2.376-.576v2.832h-.696q-1.608 0-2.448.816-.816.816-.816 2.832V34h-2.736V20.776h2.736zm18.595 4.368q0 .744-.096 1.344H116.65q.12 1.584 1.176 2.544t2.592.96q2.208 0 3.12-1.848h2.952q-.6 1.824-2.184 3-1.56 1.152-3.888 1.152-1.896 0-3.408-.84a6.3 6.3 0 0 1-2.352-2.4q-.84-1.56-.84-3.6t.816-3.576q.84-1.56 2.328-2.4 1.512-.84 3.456-.84 1.872 0 3.336.816a5.75 5.75 0 0 1 2.28 2.304q.816 1.464.816 3.384m-2.856-.864q-.024-1.512-1.08-2.424t-2.616-.912q-1.416 0-2.424.912-1.008.888-1.2 2.424zm8.284-8.88V34h-2.736V17.32zm6.784 5.688v7.32q0 .744.336 1.08.36.312 1.2.312h1.68V34h-2.16q-1.848 0-2.832-.864t-.984-2.808v-7.32h-1.56v-2.232h1.56v-3.288h2.76v3.288h3.216v2.232z"/><rect width="48" height="48" fill="#FA7275" opacity=".2" rx="24"/><rect width="32" height="32" x="21" y="20" fill="#FA7275" rx="16"/></svg>