<svg xmlns="http://www.w3.org/2000/svg" width="30" height="30" fill="none"><circle cx="15" cy="15" r="15" fill="#F9AB72" opacity=".1"/><g clip-path="url(#a)"><mask id="b" fill="#fff"><path d="M19.387 16.962c-.934 0-1.769.426-2.323 1.093l-3.605-2.047a3 3 0 0 0 0-2.016l3.605-2.047a3.01 3.01 0 0 0 2.322 1.093 3.02 3.02 0 0 0 3.019-3.02A3.02 3.02 0 0 0 19.387 7a3.022 3.022 0 0 0-2.845 4.027l-3.605 2.047a3.01 3.01 0 0 0-2.322-1.092A3.02 3.02 0 0 0 7.595 15a3.02 3.02 0 0 0 3.02 3.019c.932 0 1.768-.426 2.322-1.093l3.605 2.047A3.022 3.022 0 0 0 19.387 23a3.02 3.02 0 0 0 3.018-3.018 3.02 3.02 0 0 0-3.018-3.02m0-8.906c1.081 0 1.962.88 1.962 1.962 0 1.083-.88 1.964-1.962 1.964a1.965 1.965 0 0 1-1.963-1.964c0-1.082.88-1.962 1.963-1.962m-8.772 8.906A1.965 1.965 0 0 1 8.652 15c0-1.082.88-1.962 1.963-1.962 1.082 0 1.962.88 1.962 1.962s-.88 1.962-1.962 1.962m8.772 4.982a1.965 1.965 0 0 1-1.963-1.962c0-1.083.88-1.963 1.963-1.963 1.081 0 1.962.88 1.962 1.963 0 1.081-.88 1.962-1.962 1.962"/></mask><path fill="#333F4E" d="M19.387 16.962c-.934 0-1.769.426-2.323 1.093l-3.605-2.047a3 3 0 0 0 0-2.016l3.605-2.047a3.01 3.01 0 0 0 2.322 1.093 3.02 3.02 0 0 0 3.019-3.02A3.02 3.02 0 0 0 19.387 7a3.022 3.022 0 0 0-2.845 4.027l-3.605 2.047a3.01 3.01 0 0 0-2.322-1.092A3.02 3.02 0 0 0 7.595 15a3.02 3.02 0 0 0 3.02 3.019c.932 0 1.768-.426 2.322-1.093l3.605 2.047A3.022 3.022 0 0 0 19.387 23a3.02 3.02 0 0 0 3.018-3.018 3.02 3.02 0 0 0-3.018-3.02m0-8.906c1.081 0 1.962.88 1.962 1.962 0 1.083-.88 1.964-1.962 1.964a1.965 1.965 0 0 1-1.963-1.964c0-1.082.88-1.962 1.963-1.962m-8.772 8.906A1.965 1.965 0 0 1 8.652 15c0-1.082.88-1.962 1.963-1.962 1.082 0 1.962.88 1.962 1.962s-.88 1.962-1.962 1.962m8.772 4.982a1.965 1.965 0 0 1-1.963-1.962c0-1.083.88-1.963 1.963-1.963 1.081 0 1.962.88 1.962 1.963 0 1.081-.88 1.962-1.962 1.962"/><path fill="#F9AB72" d="m17.064 18.055-1.112 1.96 1.64.931 1.206-1.451zm-3.605-2.047-2.123-.755-.633 1.782 1.644.933zM13.633 15H11.38V15zm-.174-1.008-1.113-1.96-1.643.934.633 1.781zm3.605-2.047 1.733-1.44-1.205-1.452-1.641.932zm5.34-1.927h-2.253zm-5.862 1.009 1.112 1.96 1.644-.934-.633-1.781zm-3.605 2.047-1.733 1.44 1.205 1.451 1.64-.931zm0 3.852 1.112-1.96-1.64-.93-1.206 1.45zm3.605 2.047 2.123.755.633-1.781-1.644-.933zm-.174 1.009h2.253v-.002zm6.037 0H20.15zm-3.018-5.273a5.27 5.27 0 0 0-4.056 1.906l3.467 2.88a.76.76 0 0 1 .589-.28zm-1.21 1.387-3.605-2.047-2.225 3.919 3.605 2.047zm-2.595.668a5.3 5.3 0 0 0 .304-1.765l-4.506.002a.8.8 0 0 1-.044.252zM15.886 15c0-.601-.102-1.198-.304-1.764l-4.246 1.51a.8.8 0 0 1 .043.252zm-1.314.95 3.605-2.047-2.226-3.919-3.605 2.048zm.758-2.567a5.27 5.27 0 0 0 4.056 1.907v-4.506a.76.76 0 0 1-.588-.28zm4.056 1.907a5.276 5.276 0 0 0 5.272-5.273h-4.507a.77.77 0 0 1-.765.767zm5.272-5.272a5.275 5.275 0 0 0-5.271-5.272v4.506c.42 0 .764.345.764.765zm-5.271-5.272a5.275 5.275 0 0 0-5.273 5.271h4.507c0-.42.345-.765.766-.765zm-5.273 5.271c0 .617.108 1.212.304 1.764l4.247-1.51a.8.8 0 0 1-.044-.254zm1.315-.95-3.605 2.047 2.226 3.919 3.604-2.048zm-.759 2.566a5.27 5.27 0 0 0-4.055-1.906v4.507a.76.76 0 0 1 .588.279zm-4.055-1.906A5.276 5.276 0 0 0 5.342 15H9.85c0-.42.345-.765.766-.765zM5.342 15a5.276 5.276 0 0 0 5.273 5.272v-4.507A.77.77 0 0 1 9.849 15zm5.273 5.272a5.27 5.27 0 0 0 4.055-1.906l-3.466-2.88a.76.76 0 0 1-.59.28zm1.21-1.386 3.604 2.047 2.225-3.92-3.605-2.046zm2.594-.668a5.3 5.3 0 0 0-.305 1.765l4.507-.003q0-.128.044-.252zm-.305 1.764a5.275 5.275 0 0 0 5.272 5.271v-4.506a.77.77 0 0 1-.765-.765zm5.272 5.271a5.275 5.275 0 0 0 5.272-5.271h-4.507c0 .42-.345.765-.765.765zm5.272-5.271a5.275 5.275 0 0 0-5.271-5.273v4.507c.419 0 .764.345.764.765zm-5.271-9.672a.29.29 0 0 1-.292-.292h4.507a4.22 4.22 0 0 0-4.215-4.215zm-.292-.292c0-.16.128-.29.292-.29v4.507a4.22 4.22 0 0 0 4.215-4.217zm.292-.29c.163 0 .29.13.29.29h-4.506a4.22 4.22 0 0 0 4.216 4.217zm.29.29a.29.29 0 0 1-.29.292V5.803a4.22 4.22 0 0 0-4.216 4.215zm-9.062 4.691c.162 0 .29.128.29.291H6.4a4.22 4.22 0 0 0 4.216 4.216zm.29.291a.29.29 0 0 1-.29.291v-4.506A4.22 4.22 0 0 0 6.399 15zm-.29.291a.29.29 0 0 1-.292-.29h4.507a4.22 4.22 0 0 0-4.215-4.216zm-.292-.29a.29.29 0 0 1 .292-.292v4.507A4.22 4.22 0 0 0 14.83 15zm9.064 4.69c.162 0 .29.128.29.29h-4.506a4.22 4.22 0 0 0 4.216 4.216zm.29.29c0 .162-.127.291-.29.291v-4.507a4.22 4.22 0 0 0-4.216 4.217zm-.29.291a.29.29 0 0 1-.292-.29h4.507a4.22 4.22 0 0 0-4.215-4.217zm-.292-.29a.29.29 0 0 1 .292-.292v4.507a4.22 4.22 0 0 0 4.215-4.215z" mask="url(#b)"/></g><defs><clipPath id="a"><path fill="#fff" d="M7 7h16v16H7z"/></clipPath></defs></svg>