<svg xmlns="http://www.w3.org/2000/svg" width="21" height="20" fill="none"><g clip-path="url(#a)"><path fill="#fff" d="M16.127 17.276h-4.29V12.94h1.417c.36 0 .572-.408.36-.703l-2.759-3.816a.44.44 0 0 0-.715 0l-2.758 3.816a.442.442 0 0 0 .36.703H9.16v4.336H4.354C2.208 17.158.5 15.151.5 12.977c0-1.5.813-2.807 2.019-3.514A2.768 2.768 0 0 1 6.07 5.908a5.55 5.55 0 0 1 5.023-3.184 5.557 5.557 0 0 1 5.517 5.014c2.21.38 3.89 2.427 3.89 4.745 0 2.476-1.929 4.622-4.373 4.793"/></g><defs><clipPath id="a"><path fill="#fff" d="M.5 0h20v20H.5z"/></clipPath></defs></svg>